<?xml version="1.0" standalone="no"?>
<!DOCTYPE svg PUBLIC "-//W3C//DTD SVG 20010904//EN"
 "http://www.w3.org/TR/2001/REC-SVG-20010904/DTD/svg10.dtd">
<svg version="1.0" xmlns="http://www.w3.org/2000/svg"
 width="995.000000pt" height="1280.000000pt" viewBox="0 0 995.000000 1280.000000"
 preserveAspectRatio="xMidYMid meet">
<metadata>
Created by potrace 1.15, written by Peter Selinger 2001-2017
</metadata>
<g transform="translate(0.000000,1280.000000) scale(0.100000,-0.100000)"
fill="#000000" stroke="none">
<path d="M2322 12783 c-5 -10 -20 -49 -32 -87 -21 -65 -22 -71 -6 -96 11 -19
16 -52 16 -104 0 -44 4 -76 10 -76 6 0 10 23 10 51 0 46 2 50 20 44 20 -6 20
-6 -1 30 -21 35 -21 40 -9 141 13 103 10 133 -8 97z"/>
<path d="M2381 12680 c0 -69 4 -147 9 -175 5 -36 8 -6 9 110 0 89 -4 167 -9
175 -7 10 -9 -26 -9 -110z"/>
<path d="M4777 12794 c-9 -9 -9 -244 -1 -308 8 -56 21 -60 26 -8 4 36 4 36 12
-15 5 -29 14 -60 20 -69 23 -30 245 -40 299 -12 12 6 17 5 17 -6 0 -9 14 -18
37 -22 50 -9 343 3 357 15 7 6 27 6 51 1 56 -13 738 -25 860 -15 76 6 92 10
65 15 -20 3 -41 9 -46 13 -6 3 -128 1 -272 -5 -211 -9 -286 -8 -399 3 -76 7
-244 14 -373 14 -207 0 -239 2 -263 18 -32 21 -56 21 -81 2 -24 -18 -128 -20
-174 -4 -27 9 -32 17 -41 62 -12 62 -30 214 -34 277 -2 40 -5 45 -27 48 -14 2
-29 0 -33 -4z m20 -106 c-2 -13 -4 -3 -4 22 0 25 2 35 4 23 2 -13 2 -33 0 -45z"/>
<path d="M7227 12794 c-3 -4 -2 -15 3 -25 6 -9 17 -93 25 -185 9 -93 18 -178
21 -191 10 -40 25 -25 20 20 -3 23 -11 103 -17 177 -14 176 -27 229 -52 204z"/>
<path d="M7 12784 c-4 -4 -7 -39 -7 -78 0 -81 15 -74 26 12 6 50 -3 82 -19 66z"/>
<path d="M4686 12778 c-7 -16 -3 -300 6 -368 3 -25 2 -25 -92 -30 -104 -5 -96
-15 21 -25 57 -5 78 -3 86 7 12 14 11 299 0 328 -4 8 -8 35 -10 60 -2 32 -5
40 -11 28z"/>
<path d="M7145 12736 c-9 -71 5 -208 22 -214 10 -3 11 17 7 90 -4 51 -10 113
-14 138 l-7 45 -8 -59z"/>
<path d="M9580 12753 c0 -70 20 -327 31 -403 16 -109 33 -146 71 -154 45 -9
171 -7 187 3 21 14 5 60 -25 71 -34 13 -51 2 -25 -17 32 -22 25 -31 -26 -35
-38 -3 -47 0 -51 14 -2 10 -10 18 -18 18 -7 0 -18 9 -24 19 -13 26 -29 181
-31 301 -1 52 -4 122 -8 155 l-6 60 -37 3 c-38 3 -38 3 -38 -35z m47 -35 c-3
-7 -5 -2 -5 12 0 14 2 19 5 13 2 -7 2 -19 0 -25z m0 -175 c-3 -10 -5 -4 -5 12
0 17 2 24 5 18 2 -7 2 -21 0 -30z m23 -205 c0 -16 -3 -19 -11 -11 -6 6 -8 16
-5 22 11 17 16 13 16 -11z"/>
<path d="M5790 12764 c-10 -11 -11 -20 -3 -32 17 -27 38 -20 38 12 0 34 -16
44 -35 20z"/>
<path d="M7214 12724 c-4 -14 -2 -53 3 -87 l10 -62 2 88 c1 89 -3 107 -15 61z"/>
<path d="M632 12658 c-18 -18 -15 -50 5 -46 9 2 18 9 21 16 2 7 -2 10 -12 6
-19 -7 -21 7 -4 24 7 7 10 12 7 12 -3 0 -10 -5 -17 -12z"/>
<path d="M4072 12635 c0 -16 2 -22 5 -12 2 9 2 23 0 30 -3 6 -5 -1 -5 -18z"/>
<path d="M4102 12640 c0 -14 2 -19 5 -12 2 6 2 18 0 25 -3 6 -5 1 -5 -13z"/>
<path d="M9500 12645 c-10 -12 -9 -16 4 -21 15 -6 15 -8 -1 -19 -17 -13 -17
-14 0 -21 27 -10 51 18 43 50 -7 29 -27 34 -46 11z"/>
<path d="M9700 12570 c-17 -11 -8 -64 12 -68 20 -4 61 34 55 51 -4 14 -51 27
-67 17z"/>
<path d="M2 12540 c0 -14 2 -19 5 -12 2 6 2 18 0 25 -3 6 -5 1 -5 -13z"/>
<path d="M4081 12531 c-16 -30 -3 -53 28 -49 19 2 27 10 29 28 3 20 1 23 -9
13 -17 -17 -30 -16 -23 1 9 22 -14 29 -25 7z"/>
<path d="M9525 12539 c-4 -6 -5 -13 -2 -16 7 -7 27 6 27 18 0 12 -17 12 -25
-2z"/>
<path d="M7156 12455 c-3 -9 -6 -33 -6 -53 l0 -37 -264 2 -264 2 -23 -25 -24
-25 50 5 c28 4 157 11 289 16 131 6 242 13 247 15 13 9 23 95 12 106 -7 7 -12
5 -17 -6z"/>
<path d="M9530 12445 c0 -8 5 -15 10 -15 6 0 10 7 10 15 0 8 -4 15 -10 15 -5
0 -10 -7 -10 -15z"/>
<path d="M2388 12424 c-5 -4 -8 -23 -8 -43 0 -25 3 -32 11 -24 6 6 9 25 7 43
-2 17 -6 28 -10 24z"/>
<path d="M3347 12423 c-13 -12 -7 -43 7 -43 19 0 48 29 41 41 -7 10 -39 12
-48 2z"/>
<path d="M4273 12423 c9 -2 23 -2 30 0 6 3 -1 5 -18 5 -16 0 -22 -2 -12 -5z"/>
<path d="M1445 12400 c-7 -12 2 -30 16 -30 12 0 12 27 0 35 -5 3 -12 1 -16 -5z"/>
<path d="M4196 12401 c-4 -6 -29 -13 -56 -17 -55 -7 -58 -24 -6 -24 34 0 87
32 75 45 -4 3 -10 2 -13 -4z"/>
<path d="M8070 12390 c-8 -5 -12 -12 -8 -15 9 -9 48 4 48 16 0 12 -21 11 -40
-1z"/>
<path d="M831 12381 c-8 -5 -9 -11 -3 -15 14 -8 43 4 36 15 -7 11 -15 11 -33
0z"/>
<path d="M2200 12379 c-30 -5 -92 -16 -138 -25 -46 -8 -178 -19 -295 -24 -281
-13 -1137 -30 -1458 -30 -244 0 -258 1 -283 21 l-26 20 0 -30 c0 -16 8 -37 17
-47 15 -15 39 -16 257 -10 133 4 428 11 656 16 228 5 501 14 605 20 493 25
604 29 654 23 50 -6 53 -5 47 14 -5 15 0 23 19 31 26 12 34 33 13 31 -7 -1
-38 -5 -68 -10z"/>
<path d="M3603 12377 c-47 -18 -48 -24 -8 -37 37 -12 61 -6 35 10 -23 14 13
23 72 18 46 -5 49 -4 33 8 -23 17 -88 17 -132 1z"/>
<path d="M3844 12365 c24 -18 39 -20 34 -2 -3 6 -15 13 -29 15 -23 2 -23 2 -5
-13z"/>
<path d="M3906 12371 c-3 -5 0 -11 8 -14 19 -8 57 3 50 14 -7 12 -51 12 -58 0z"/>
<path d="M4315 12370 c3 -5 33 -10 66 -10 33 0 59 4 59 10 0 6 -29 10 -66 10
-41 0 -63 -4 -59 -10z"/>
<path d="M3268 12353 c7 -3 16 -2 19 1 4 3 -2 6 -13 5 -11 0 -14 -3 -6 -6z"/>
<path d="M8266 12353 c-10 -10 -197 -25 -290 -23 -107 2 -70 -17 46 -24 57 -3
294 -11 528 -17 460 -11 568 -19 585 -42 14 -19 101 -37 180 -37 58 0 66 3 81
25 21 33 14 39 -22 20 -28 -14 -29 -14 -32 9 -3 21 -10 24 -60 30 -78 8 -242
15 -607 26 -281 9 -336 14 -386 34 -8 4 -19 3 -23 -1z m1034 -103 c0 -5 -7
-10 -16 -10 -8 0 -12 5 -9 10 3 6 10 10 16 10 5 0 9 -4 9 -10z"/>
<path d="M7290 12340 c-11 -8 8 -10 75 -8 50 1 140 -1 200 -5 81 -5 101 -4 75
4 -53 15 -332 23 -350 9z"/>
<path d="M2453 12333 c12 -3 16 -10 12 -24 -7 -22 7 -25 25 -4 16 20 4 35 -28
34 -18 -1 -21 -3 -9 -6z"/>
<path d="M2738 12333 c6 -2 18 -2 25 0 6 3 1 5 -13 5 -14 0 -19 -2 -12 -5z"/>
<path d="M7730 12332 c0 -25 83 -39 125 -23 16 7 9 10 -30 15 -27 4 -60 9 -72
12 -13 2 -23 1 -23 -4z"/>
<path d="M9188 12333 c6 -2 18 -2 25 0 6 3 1 5 -13 5 -14 0 -19 -2 -12 -5z"/>
<path d="M3368 12283 c6 -2 18 -2 25 0 6 3 1 5 -13 5 -14 0 -19 -2 -12 -5z"/>
<path d="M6075 12284 c-28 -8 -45 -33 -45 -69 0 -17 -9 -57 -21 -90 -17 -49
-20 -71 -13 -125 7 -65 7 -65 18 -30 l10 35 3 -35 c2 -19 7 -124 12 -233 6
-155 12 -202 23 -214 8 -8 48 -19 89 -24 81 -11 1031 -33 1282 -31 89 1 213
-4 285 -13 136 -16 340 -19 571 -8 130 6 141 7 117 20 -21 11 -133 16 -524 23
-1424 27 -1785 39 -1805 59 -8 8 -7 17 2 34 10 18 10 37 2 83 -6 32 -14 166
-18 296 -5 209 -4 240 10 262 23 34 73 40 245 29 115 -7 145 -13 162 -28 11
-10 23 -16 26 -12 11 10 -17 48 -44 59 -28 11 -351 21 -387 12z"/>
<path d="M3662 12270 c-84 -9 -104 -29 -110 -110 -2 -33 -9 -60 -15 -60 -10 0
-3 -292 11 -495 l7 -90 232 -5 c167 -4 236 -9 245 -17 6 -7 28 -13 48 -13 24
0 31 3 21 9 -8 5 66 11 185 15 578 17 667 23 681 42 13 18 15 18 33 -6 l18
-24 389 -10 c213 -5 415 -9 448 -10 l59 -1 17 55 c27 87 32 160 24 359 -10
237 -23 210 -24 -48 -1 -167 -3 -192 -16 -187 -10 4 -15 -1 -15 -15 0 -11 7
-22 15 -26 14 -5 14 -7 1 -22 -9 -10 -19 -32 -22 -49 -4 -18 -14 -34 -25 -37
-34 -11 -414 21 -495 41 -17 4 -24 2 -24 -7 0 -11 -23 -13 -122 -7 -68 3 -133
7 -145 7 -12 1 -34 12 -50 25 -28 23 -55 31 -95 28 -21 -2 -24 -32 -6 -50 9
-9 -6 -12 -70 -12 l-82 0 2 32 c3 26 -2 35 -25 46 -15 7 -38 12 -50 10 -19 -3
-17 -6 18 -28 38 -24 39 -25 15 -29 -14 -1 -28 -8 -32 -15 -5 -8 -155 -11
-560 -11 l-553 0 -3 70 c-2 42 -9 76 -17 85 -12 13 -13 53 -6 236 9 248 15
272 71 290 25 9 353 13 1158 15 l1122 4 0 -30 c0 -40 10 -75 21 -75 5 0 9 29
9 65 l0 65 -1112 -1 c-612 -1 -1141 -5 -1176 -9z"/>
<path d="M6573 12274 c-26 -6 -29 -17 -9 -33 10 -8 27 -8 67 0 37 8 108 10
229 4 207 -8 419 -7 475 3 25 4 -38 9 -175 13 -118 4 -294 9 -390 12 -96 3
-185 3 -197 1z"/>
<path d="M8483 12263 c9 -2 25 -2 35 0 9 3 1 5 -18 5 -19 0 -27 -2 -17 -5z"/>
<path d="M8655 12261 c6 -5 42 -12 80 -16 46 -5 67 -4 60 3 -5 5 -41 13 -80
16 -45 5 -66 4 -60 -3z"/>
<path d="M1280 12250 c0 -5 9 -10 20 -10 11 0 20 5 20 10 0 6 -9 10 -20 10
-11 0 -20 -4 -20 -10z"/>
<path d="M1360 12250 c0 -5 7 -10 16 -10 8 0 12 5 9 10 -3 6 -10 10 -16 10 -5
0 -9 -4 -9 -10z"/>
<path d="M1475 12250 c-3 -5 1 -10 9 -10 9 0 16 5 16 10 0 6 -4 10 -9 10 -6 0
-13 -4 -16 -10z"/>
<path d="M1880 12250 c0 -5 9 -10 20 -10 11 0 20 5 20 10 0 6 -9 10 -20 10
-11 0 -20 -4 -20 -10z"/>
<path d="M2712 12253 c-76 -2 -121 -7 -117 -13 4 -6 155 -10 394 -10 l389 0
12 -30 c16 -39 48 -58 56 -35 9 23 -12 59 -44 72 -29 13 -468 23 -690 16z"/>
<path d="M7557 12253 c-48 -3 -67 -8 -64 -16 5 -16 256 -14 283 2 16 9 12 10
-22 11 -23 0 -61 2 -85 4 -24 1 -75 1 -112 -1z"/>
<path d="M1540 12237 c-3 -4 -85 -11 -181 -16 -118 -6 -187 -14 -213 -25 -33
-14 -42 -14 -72 -1 -38 15 -42 10 -18 -23 22 -32 3 -27 -31 8 l-29 30 -160 -1
c-177 0 -237 -7 -244 -28 -3 -10 4 -12 34 -7 91 14 260 18 301 7 54 -15 99
-53 115 -96 8 -23 15 -31 20 -22 4 6 8 -119 8 -279 0 -221 3 -294 13 -302 6
-6 75 -13 152 -16 159 -7 157 4 -6 28 -56 9 -106 19 -111 24 -12 12 -13 225
-2 428 10 192 15 205 83 224 69 19 441 32 620 21 115 -8 178 -8 201 0 19 5
129 16 244 24 115 8 211 17 215 21 11 11 -452 -3 -492 -15 -29 -9 -51 -10 -90
-1 -58 12 -349 26 -357 17z"/>
<path d="M7895 12230 c17 -4 109 -11 205 -14 96 -3 189 -9 205 -14 17 -5 39
-6 49 -2 59 20 -99 40 -319 39 -106 -1 -159 -4 -140 -9z"/>
<path d="M9058 12233 c6 -2 18 -2 25 0 6 3 1 5 -13 5 -14 0 -19 -2 -12 -5z"/>
<path d="M6002 12200 c0 -14 2 -19 5 -12 2 6 2 18 0 25 -3 6 -5 1 -5 -13z"/>
<path d="M8467 12213 c-22 -4 -27 -8 -21 -21 4 -9 10 -161 13 -338 5 -249 9
-325 20 -337 7 -9 11 -24 7 -32 -8 -23 21 -30 43 -11 17 16 21 14 71 -19 28
-19 57 -35 64 -35 6 -1 -2 -7 -19 -15 -25 -11 -27 -13 -9 -14 31 -1 69 32 61
52 -4 10 -15 17 -26 17 -11 0 -35 13 -53 29 -18 16 -49 36 -69 44 -34 14 -37
19 -43 64 -6 45 -26 475 -26 556 l0 37 73 0 c81 0 118 13 67 24 -34 6 -105 6
-153 -1z"/>
<path d="M8735 12200 c3 -5 22 -10 41 -10 21 0 33 4 29 10 -3 6 -22 10 -41 10
-21 0 -33 -4 -29 -10z"/>
<path d="M159 12189 c-58 -4 -117 -13 -132 -18 -33 -13 -37 -36 -4 -27 18 5
449 36 510 36 9 0 17 5 17 10 0 12 -233 11 -391 -1z"/>
<path d="M8866 12191 c-6 -9 74 -17 249 -26 130 -6 75 9 -85 24 -140 13 -157
13 -164 2z"/>
<path d="M7198 12143 c7 -3 16 -2 19 1 4 3 -2 6 -13 5 -11 0 -14 -3 -6 -6z"/>
<path d="M8258 12093 c12 -2 32 -2 45 0 12 2 2 4 -23 4 -25 0 -35 -2 -22 -4z"/>
<path d="M3450 12061 c0 -25 6 -27 13 -6 4 8 2 17 -3 20 -6 4 -10 -3 -10 -14z"/>
<path d="M5178 12073 c6 -2 18 -2 25 0 6 3 1 5 -13 5 -14 0 -19 -2 -12 -5z"/>
<path d="M6932 12068 c-17 -17 -15 -33 3 -18 13 10 15 9 15 -11 0 -17 3 -20
11 -12 11 11 4 53 -10 53 -4 0 -12 -5 -19 -12z"/>
<path d="M8265 12060 c-4 -6 5 -10 20 -10 15 0 24 4 20 10 -3 6 -12 10 -20 10
-8 0 -17 -4 -20 -10z"/>
<path d="M8372 12015 c0 -16 2 -22 5 -12 2 9 2 23 0 30 -3 6 -5 -1 -5 -18z"/>
<path d="M253 12023 c-7 -2 -13 -10 -13 -15 0 -6 3 -8 7 -5 3 4 12 2 20 -4 10
-9 13 -7 13 10 0 21 -5 24 -27 14z"/>
<path d="M1010 11996 c0 -16 26 -46 40 -46 5 0 1 13 -8 30 -18 32 -32 39 -32
16z"/>
<path d="M3456 11918 c-13 -113 -19 -305 -9 -311 7 -4 13 32 17 101 3 59 9
142 12 185 7 88 -9 109 -20 25z"/>
<path d="M8378 11764 c2 -99 8 -195 13 -214 5 -22 7 37 5 161 -1 107 -7 203
-13 213 -7 12 -9 -38 -5 -160z"/>
<path d="M4950 11901 c8 -5 31 -12 50 -15 35 -7 35 -7 10 8 -14 9 -36 15 -50
15 -19 0 -21 -2 -10 -8z"/>
<path d="M1004 11866 c-7 -19 14 -76 29 -76 6 0 7 15 4 37 -8 44 -24 64 -33
39z"/>
<path d="M5705 11849 c-4 -6 -5 -13 -2 -16 7 -7 27 6 27 18 0 12 -17 12 -25
-2z"/>
<path d="M7761 11726 c-13 -15 -7 -36 9 -36 5 0 7 7 3 16 -5 13 -2 15 15 10
11 -4 23 -2 27 4 3 5 2 10 -4 10 -5 0 -16 2 -24 5 -7 3 -19 -1 -26 -9z"/>
<path d="M5617 11693 c-11 -11 -8 -41 5 -50 7 -4 57 -8 111 -8 71 -1 101 -5
107 -14 10 -17 40 -7 40 12 0 17 -47 28 -80 20 -16 -4 -21 -3 -16 5 4 7 15 12
24 12 30 1 -8 17 -57 24 -39 6 -43 5 -31 -9 16 -19 3 -19 -30 0 -27 15 -62 19
-73 8z"/>
<path d="M1012 11648 c-16 -16 -15 -28 3 -28 8 0 15 2 15 4 0 2 3 11 6 20 7
19 -7 21 -24 4z"/>
<path d="M1925 11605 c-29 -28 -32 -57 -9 -79 18 -19 20 -19 44 -6 21 11 45
73 36 95 -8 23 -44 18 -71 -10z"/>
<path d="M5473 11623 c-15 -5 -18 -33 -4 -33 6 0 13 5 17 11 4 8 9 7 15 -2 7
-11 13 -9 31 9 l22 22 -34 -1 c-19 0 -41 -3 -47 -6z"/>
<path d="M988 11543 c-3 -34 -7 -39 -48 -55 -39 -15 -41 -17 -17 -17 37 -1 96
24 103 44 8 19 -11 65 -25 65 -5 0 -11 -17 -13 -37z"/>
<path d="M3447 11547 c-26 -20 -45 -22 -250 -28 -526 -16 -643 -15 -664 4 -25
22 -62 22 -78 0 -11 -15 -30 -17 -156 -13 -182 4 -155 5 -484 -14 -326 -18
-285 -14 -285 -24 0 -4 52 -5 115 -3 83 2 115 0 115 -9 0 -6 4 -8 10 -5 5 3
160 10 343 14 213 6 342 13 355 20 15 8 34 8 64 1 76 -17 276 -25 302 -11 19
10 71 10 266 -1 191 -11 246 -11 255 -1 7 6 39 13 71 15 57 3 59 4 62 32 5 40
-8 47 -41 23z"/>
<path d="M165 11500 c4 -6 11 -8 16 -5 14 9 11 15 -7 15 -8 0 -12 -5 -9 -10z"/>
<path d="M3733 11483 c9 -2 25 -2 35 0 9 3 1 5 -18 5 -19 0 -27 -2 -17 -5z"/>
<path d="M3858 11483 c12 -2 30 -2 40 0 9 3 -1 5 -23 4 -22 0 -30 -2 -17 -4z"/>
<path d="M1410 11470 c0 -12 41 -30 53 -23 4 3 3 11 -4 19 -13 16 -49 19 -49
4z"/>
<path d="M8725 11460 c-4 -6 -3 -15 1 -20 16 -15 214 -16 214 -1 0 19 -204 39
-215 21z"/>
<path d="M9188 11463 c6 -2 18 -2 25 0 6 3 1 5 -13 5 -14 0 -19 -2 -12 -5z"/>
<path d="M263 11440 c-48 -19 -21 -51 40 -49 l32 1 -29 12 c-28 13 -27 14 40
21 54 6 63 10 44 16 -35 10 -101 9 -127 -1z"/>
<path d="M8970 11441 c0 -5 18 -11 40 -13 56 -5 121 2 114 13 -7 12 -154 12
-154 0z"/>
<path d="M38 11433 c-21 -2 -38 -8 -38 -13 0 -16 41 -22 96 -15 58 7 84 25 35
25 -16 0 -35 1 -43 3 -7 2 -30 2 -50 0z"/>
<path d="M5110 11430 c-205 -6 -251 -16 -258 -53 -4 -18 -3 -18 24 0 27 17 76
18 1079 17 1123 -1 1171 -3 1200 -48 7 -11 18 -64 25 -116 6 -52 14 -97 17
-100 8 -7 -3 230 -12 252 -4 9 -14 19 -23 23 -36 14 -1700 34 -2052 25z"/>
<path d="M9348 11413 c7 -3 16 -2 19 1 4 3 -2 6 -13 5 -11 0 -14 -3 -6 -6z"/>
<path d="M9542 11408 c-20 -20 -14 -55 13 -72 34 -22 125 -34 125 -16 0 7 7
10 15 6 8 -3 15 -1 15 4 0 6 -25 10 -55 10 -30 0 -55 5 -55 10 0 6 15 10 33
10 l32 0 -32 20 c-18 11 -33 24 -33 30 0 14 -43 13 -58 -2z"/>
<path d="M2155 11400 c-16 -4 -277 -14 -580 -20 -302 -6 -653 -15 -780 -20
-205 -7 -483 -6 -603 4 -34 3 -40 1 -32 -9 8 -10 -2 -14 -50 -20 -33 -4 -67
-13 -74 -21 -17 -16 -26 -177 -29 -507 l-2 -229 28 -24 c28 -24 31 -24 215
-23 103 1 216 5 252 9 l65 7 -75 2 c-282 8 -412 18 -428 35 -15 15 -17 49 -16
324 0 320 7 382 43 401 10 6 306 15 707 21 712 12 1310 26 1448 36 l78 6 -7
-239 c-7 -249 -16 -333 -41 -353 -18 -16 -18 -30 0 -30 17 0 40 -64 32 -86
-15 -39 -85 -48 -591 -70 -218 -10 -162 -22 105 -23 289 -1 482 22 507 61 4 7
8 58 8 113 1 157 26 559 36 570 5 5 19 10 32 10 14 0 22 6 22 17 0 9 3 19 6
23 4 3 50 -2 103 -12 95 -16 97 -16 124 4 15 11 28 27 30 37 3 14 1 14 -26 -1
-27 -16 -40 -16 -130 -5 -89 11 -104 11 -134 -4 -32 -15 -37 -15 -66 0 -38 20
-136 29 -177 16z"/>
<path d="M3284 11395 c-10 -8 -14 -14 -9 -15 15 0 40 18 34 24 -3 3 -14 -1
-25 -9z"/>
<path d="M3365 11401 c-25 -6 -19 -9 40 -16 76 -9 1023 3 1170 15 50 4 -196 7
-545 7 -349 0 -648 -3 -665 -6z"/>
<path d="M8845 11400 c-3 -5 1 -10 10 -10 9 0 13 5 10 10 -3 6 -8 10 -10 10
-2 0 -7 -4 -10 -10z"/>
<path d="M9835 11400 c-3 -5 3 -10 15 -10 12 0 18 5 15 10 -3 6 -10 10 -15 10
-5 0 -12 -4 -15 -10z"/>
<path d="M9910 11400 c0 -6 7 -10 15 -10 8 0 15 2 15 4 0 2 -7 6 -15 10 -8 3
-15 1 -15 -4z"/>
<path d="M2896 11389 c-88 -5 -164 -10 -170 -13 -22 -8 51 -29 119 -33 51 -4
95 1 158 16 49 12 118 21 153 21 41 0 63 4 59 10 -7 11 -85 11 -319 -1z"/>
<path d="M460 11380 c0 -5 7 -10 15 -10 8 0 15 5 15 10 0 6 -7 10 -15 10 -8 0
-15 -4 -15 -10z"/>
<path d="M4740 11378 c1 -13 45 -68 55 -68 12 0 4 50 -11 64 -19 19 -44 21
-44 4z"/>
<path d="M9150 11380 c0 -5 7 -10 15 -10 8 0 15 5 15 10 0 6 -7 10 -15 10 -8
0 -15 -4 -15 -10z"/>
<path d="M7310 11358 l-25 -14 0 -366 1 -367 -31 -3 c-19 -2 -31 -9 -33 -20
-4 -18 18 -31 71 -42 36 -8 35 -26 -2 -26 -47 0 -46 -18 1 -24 45 -5 199 -24
258 -32 32 -4 71 9 60 20 -3 2 -57 9 -120 16 -114 11 -149 22 -121 39 11 7 11
10 0 17 -8 5 -21 9 -29 10 -70 5 -73 7 -20 15 30 5 90 6 133 3 66 -6 75 -8 60
-19 -31 -23 -8 -27 61 -10 89 20 107 20 99 -2 -6 -16 -5 -17 12 -3 22 18 251
20 560 5 l190 -9 -90 -11 c-49 -7 -75 -13 -57 -14 25 -1 32 -5 32 -21 0 -17 7
-20 39 -20 21 0 43 -6 49 -12 15 -20 24 -110 14 -138 -7 -18 -6 -32 6 -51 14
-24 13 -28 -7 -48 -25 -25 -26 -34 -4 -67 11 -18 20 -70 29 -179 18 -225 33
-231 34 -14 0 121 4 179 12 187 6 6 8 15 3 19 -4 5 -10 2 -12 -5 -3 -6 -9 -10
-14 -6 -6 3 -7 64 -3 153 l7 147 -42 18 c-22 11 -41 22 -41 27 0 16 211 22
582 16 240 -3 394 -10 405 -16 14 -8 3 -11 -47 -12 -61 -1 -63 -2 -25 -10 22
-4 84 -8 137 -8 102 -1 128 9 128 49 0 24 -70 36 -143 25 -29 -5 -79 -8 -112
-7 -33 1 -134 3 -225 5 -91 2 -266 9 -390 16 -124 6 -423 20 -665 31 -464 21
-695 37 -707 48 -9 9 -31 596 -23 632 4 17 14 30 28 34 36 9 440 20 481 12 27
-5 36 -11 32 -22 -8 -20 7 -18 49 7 32 19 41 20 74 10 50 -14 322 -14 429 1
73 10 86 9 122 -7 36 -16 49 -17 122 -7 46 7 106 9 135 6 61 -8 117 2 92 16
-20 12 -540 31 -729 28 -80 -2 -293 1 -475 5 -270 7 -335 6 -355 -5z m2213
-845 c-7 -2 -21 -2 -30 0 -10 3 -4 5 12 5 17 0 24 -2 18 -5z"/>
<path d="M6988 11339 c-10 -5 -18 -19 -18 -30 0 -16 6 -20 26 -17 34 4 56 34
34 48 -18 12 -21 12 -42 -1z"/>
<path d="M8922 11322 c-9 -6 1 -11 34 -16 73 -10 242 -7 249 4 4 6 -8 10 -28
10 -19 0 -81 3 -138 6 -57 3 -110 1 -117 -4z"/>
<path d="M5030 11305 c-7 -8 -8 -15 -2 -15 5 0 15 7 22 15 7 8 8 15 2 15 -5 0
-15 -7 -22 -15z"/>
<path d="M5283 11284 c33 -18 33 -21 5 -45 -19 -15 -20 -18 -6 -19 10 0 25 11
34 25 20 31 5 55 -35 55 l-26 -1 28 -15z"/>
<path d="M2402 11255 c-26 -27 -28 -35 -7 -35 9 0 20 12 26 26 13 35 8 37 -19
9z"/>
<path d="M4786 11257 c-5 -16 -7 -156 -4 -312 l4 -283 -170 -1 c-94 0 -355 -8
-581 -17 -225 -9 -464 -13 -530 -10 -89 5 -132 3 -166 -8 -34 -10 -58 -12 -95
-5 -27 5 -116 9 -199 8 -88 -1 -183 3 -229 11 -69 12 -97 11 -232 -5 -85 -10
-157 -15 -161 -11 -5 4 -6 56 -4 114 2 59 4 124 5 144 0 21 -3 38 -9 38 -9 0
-29 -163 -37 -300 -4 -53 -26 -51 220 -20 162 21 177 21 245 7 118 -26 173
-30 195 -16 16 10 50 10 167 1 135 -11 149 -11 160 4 14 19 39 10 31 -12 -3
-7 -2 -15 2 -17 15 -9 254 11 264 21 8 8 48 11 113 11 55 -1 87 -4 70 -6 -16
-3 -34 -9 -40 -15 -15 -15 121 -4 140 12 10 9 64 12 182 12 103 0 158 3 143 8
-15 5 38 8 135 7 127 -2 159 -5 157 -15 -1 -8 2 -11 7 -8 5 3 57 12 115 21 59
8 116 20 127 26 16 8 25 7 40 -7 18 -16 54 -19 332 -26 248 -7 316 -11 334
-23 29 -20 43 -19 43 2 0 15 52 16 715 9 393 -3 721 -9 730 -12 8 -3 12 -10 9
-15 -3 -5 6 -9 20 -9 16 0 26 6 26 15 0 8 5 15 12 15 8 0 9 3 1 11 -16 16
-397 28 -1138 34 -374 3 -761 8 -861 11 l-181 6 -12 34 c-7 19 -10 47 -6 63
11 49 -12 44 -32 -6 l-18 -48 -6 60 c-4 33 -8 121 -9 195 -4 208 -14 341 -24
307z"/>
<path d="M9654 11248 c-14 -27 -15 -42 -4 -125 13 -108 27 -156 43 -150 18 6
30 62 23 102 -6 30 -10 35 -27 30 -18 -6 -20 -3 -17 27 2 24 8 33 21 32 14 -2
17 6 17 41 0 80 -26 100 -56 43z m36 -24 c0 -8 -4 -14 -10 -14 -5 0 -10 9 -10
21 0 11 5 17 10 14 6 -3 10 -13 10 -21z m10 -210 c0 -8 -4 -12 -10 -9 -5 3
-10 10 -10 16 0 5 5 9 10 9 6 0 10 -7 10 -16z"/>
<path d="M5125 11240 c3 -5 10 -10 16 -10 5 0 9 5 9 10 0 6 -7 10 -16 10 -8 0
-12 -4 -9 -10z"/>
<path d="M4240 11215 c0 -8 -7 -15 -15 -15 -8 0 -15 -4 -15 -10 0 -16 47 -11
54 6 10 25 7 34 -9 34 -8 0 -15 -7 -15 -15z"/>
<path d="M5290 11199 c-19 -11 -46 -19 -60 -19 -25 1 -25 1 -5 16 19 15 18 15
-15 12 -23 -2 -35 -8 -35 -18 0 -12 14 -15 67 -15 57 0 71 4 90 23 28 27 8 28
-42 1z"/>
<path d="M8725 11190 c-3 -5 3 -10 15 -10 12 0 18 5 15 10 -3 6 -10 10 -15 10
-5 0 -12 -4 -15 -10z"/>
<path d="M4856 11158 c-9 -35 -7 -311 3 -327 5 -7 11 -9 14 -4 8 13 12 277 4
290 -4 6 -2 13 4 15 13 4 3 48 -11 48 -4 0 -10 -10 -14 -22z"/>
<path d="M6672 11120 c0 -14 2 -19 5 -12 2 6 2 18 0 25 -3 6 -5 1 -5 -13z"/>
<path d="M442 11119 c2 -7 10 -15 17 -17 8 -3 12 1 9 9 -2 7 -10 15 -17 17 -8
3 -12 -1 -9 -9z"/>
<path d="M2410 11105 c0 -14 5 -25 10 -25 6 0 10 11 10 25 0 14 -4 25 -10 25
-5 0 -10 -11 -10 -25z"/>
<path d="M7187 11042 c-8 -48 1 -139 14 -148 11 -6 11 95 0 151 l-7 40 -7 -43z"/>
<path d="M1276 11015 c-3 -8 -1 -15 3 -15 5 0 11 7 15 15 3 8 1 15 -3 15 -5 0
-11 -7 -15 -15z"/>
<path d="M1390 10979 c7 -11 14 -18 17 -15 8 8 -5 36 -17 36 -7 0 -7 -6 0 -21z"/>
<path d="M442 10924 c-25 -17 -30 -54 -8 -54 18 0 46 27 46 45 0 22 -15 25
-38 9z"/>
<path d="M7252 10920 c0 -14 2 -19 5 -12 2 6 2 18 0 25 -3 6 -5 1 -5 -13z"/>
<path d="M6295 10906 c-11 -8 -16 -19 -12 -30 7 -17 30 -19 82 -7 29 7 29 7
-15 15 l-45 8 40 13 40 13 -36 1 c-19 1 -44 -5 -54 -13z"/>
<path d="M9686 10842 c-3 -6 -1 -14 5 -17 15 -10 25 3 12 16 -7 7 -13 7 -17 1z"/>
<path d="M7195 10803 c8 -32 13 -39 21 -30 10 9 -5 57 -17 57 -7 0 -9 -10 -4
-27z"/>
<path d="M955 10739 c-4 -6 -5 -13 -2 -16 7 -7 27 6 27 18 0 12 -17 12 -25 -2z"/>
<path d="M2895 10729 c-4 -6 -5 -13 -2 -16 7 -7 27 6 27 18 0 12 -17 12 -25
-2z"/>
<path d="M1047 10690 c-4 -15 -13 -20 -39 -20 -19 0 -40 6 -46 12 -10 10 -15
10 -22 -2 -29 -44 23 -63 96 -35 45 17 54 34 30 54 -11 9 -15 7 -19 -9z"/>
<path d="M3305 10672 c-29 -6 -43 -22 -19 -21 27 1 60 15 48 21 -5 2 -18 3
-29 0z"/>
<path d="M720 10625 c-7 -8 -21 -15 -32 -15 -27 0 -58 -18 -58 -34 0 -25 226
-38 295 -17 l30 9 -30 2 c-16 1 -61 2 -100 1 -83 -2 -106 9 -88 38 15 24 1 37
-17 16z"/>
<path d="M1106 10601 c-28 -30 -17 -55 25 -59 43 -4 64 17 55 53 -5 19 -13 25
-35 25 -15 0 -36 -9 -45 -19z"/>
<path d="M7112 10609 c2 -7 10 -15 17 -17 8 -3 12 1 9 9 -2 7 -10 15 -17 17
-8 3 -12 -1 -9 -9z"/>
<path d="M1341 10601 c-8 -5 -9 -11 -3 -15 13 -8 42 3 42 15 0 11 -21 11 -39
0z"/>
<path d="M4430 10600 c-11 -7 -6 -10 20 -10 26 0 31 3 20 10 -8 5 -17 10 -20
10 -3 0 -12 -5 -20 -10z"/>
<path d="M4775 10600 c-3 -6 5 -10 19 -10 14 0 28 5 31 10 3 6 -5 10 -19 10
-14 0 -28 -4 -31 -10z"/>
<path d="M980 10597 c0 -16 21 -57 29 -57 11 0 41 28 41 39 0 4 -8 7 -17 7
-10 1 -26 4 -35 9 -10 4 -18 5 -18 2z"/>
<path d="M3193 10563 c9 -2 23 -2 30 0 6 3 -1 5 -18 5 -16 0 -22 -2 -12 -5z"/>
<path d="M7783 10543 c15 -2 39 -2 55 0 15 2 2 4 -28 4 -30 0 -43 -2 -27 -4z"/>
<path d="M8048 10543 c7 -3 16 -2 19 1 4 3 -2 6 -13 5 -11 0 -14 -3 -6 -6z"/>
<path d="M4125 10530 c-424 -5 -431 -6 -482 -29 l-53 -23 0 -72 c1 -139 19
-369 30 -380 8 -8 11 41 10 189 -1 110 -1 213 -1 228 2 57 0 57 754 57 726 0
1213 9 1181 21 -27 10 -910 15 -1439 9z"/>
<path d="M5648 10532 c-16 -2 -28 -8 -28 -13 0 -5 39 -9 87 -9 47 0 84 3 81 6
-9 8 -108 20 -140 16z"/>
<path d="M6035 10530 c-3 -5 3 -10 15 -10 12 0 18 5 15 10 -3 6 -10 10 -15 10
-5 0 -12 -4 -15 -10z"/>
<path d="M6190 10529 c-75 -7 -97 -15 -109 -38 -11 -21 8 -713 20 -725 5 -6 9
128 9 342 0 330 1 353 19 371 15 15 41 19 146 25 121 7 384 2 525 -10 46 -4
62 -3 55 5 -20 21 -522 43 -665 30z"/>
<path d="M8125 10530 c-3 -5 3 -10 15 -10 12 0 18 5 15 10 -3 6 -10 10 -15 10
-5 0 -12 -4 -15 -10z"/>
<path d="M9704 10528 c-8 -13 22 -38 45 -38 13 1 12 4 -3 15 -11 8 -17 17 -15
20 9 8 111 -12 118 -23 7 -12 55 -32 74 -32 7 0 3 7 -7 15 -19 15 -19 15 2 15
40 0 23 18 -28 29 -68 15 -177 14 -186 -1z"/>
<path d="M2349 10516 c-2 -2 -186 -9 -409 -15 -535 -15 -713 -26 -780 -49 -30
-10 -55 -23 -57 -28 -2 -6 13 -18 32 -27 44 -21 51 -21 35 -2 -11 13 -6 18 26
31 52 22 336 42 397 28 27 -7 74 -7 118 -3 41 5 229 13 419 18 337 10 346 9
388 -11 37 -17 49 -19 87 -9 65 16 269 31 439 32 136 1 151 -1 165 -19 19 -23
48 -35 56 -22 4 6 -1 10 -10 10 -9 0 -15 6 -13 13 5 13 166 27 226 19 41 -6
40 -2 51 -229 6 -101 15 -191 21 -200 12 -20 8 409 -4 438 -6 13 -29 18 -109
23 -133 8 -758 -10 -825 -25 -46 -9 -57 -8 -95 10 -38 19 -144 30 -158 17z"/>
<path d="M5875 10510 c11 -5 30 -9 42 -9 29 -1 42 -27 54 -104 15 -99 20 -117
31 -117 11 0 4 182 -8 213 -7 19 -36 27 -94 26 -34 0 -40 -2 -25 -9z"/>
<path d="M6956 10512 c-9 -15 30 -22 119 -21 57 0 74 3 58 9 -36 15 -169 24
-177 12z"/>
<path d="M7640 10492 c0 -15 72 -21 345 -26 254 -5 362 6 170 17 -260 15 -515
20 -515 9z"/>
<path d="M9088 10493 c6 -2 18 -2 25 0 6 3 1 5 -13 5 -14 0 -19 -2 -12 -5z"/>
<path d="M9173 10493 c9 -2 23 -2 30 0 6 3 -1 5 -18 5 -16 0 -22 -2 -12 -5z"/>
<path d="M5583 10463 c9 -9 19 -14 23 -11 10 10 -6 28 -24 28 -15 0 -15 -1 1
-17z"/>
<path d="M8582 10472 c-14 -2 -29 -17 -42 -42 -24 -47 -25 -60 -4 -60 14 0 15
-16 9 -150 -5 -102 -4 -150 3 -150 6 0 13 35 17 78 3 42 13 97 22 123 14 41
14 48 -1 77 -22 42 -20 79 3 92 11 5 45 10 77 10 32 0 55 3 52 6 -9 8 -109 20
-136 16z"/>
<path d="M925 10463 c-11 -3 -25 -10 -32 -15 -7 -5 -18 -6 -25 -2 -14 9 -650
7 -768 -2 -90 -8 -120 -20 -70 -28 19 -3 202 -6 405 -7 505 -2 482 -3 494 18
9 17 12 17 38 3 55 -30 58 -49 58 -349 0 -198 3 -275 12 -278 7 -3 13 29 17
104 4 59 12 135 18 168 6 33 10 69 10 80 -2 61 -34 291 -41 298 -11 11 -88 18
-116 10z"/>
<path d="M8756 10451 c-4 -5 29 -12 71 -16 43 -3 86 -11 96 -16 22 -12 29 -8
18 10 -15 24 -173 43 -185 22z"/>
<path d="M2460 10440 c0 -5 7 -10 15 -10 8 0 15 5 15 10 0 6 -7 10 -15 10 -8
0 -15 -4 -15 -10z"/>
<path d="M8994 10435 c-18 -14 -17 -14 13 -15 39 0 65 9 57 21 -8 14 -48 11
-70 -6z"/>
<path d="M9195 10420 c3 -5 21 -10 40 -10 19 0 37 5 40 10 4 6 -12 10 -40 10
-28 0 -44 -4 -40 -10z"/>
<path d="M1291 10324 c-33 -23 -33 -24 -9 -24 23 0 58 26 58 43 0 12 -14 6
-49 -19z"/>
<path d="M8480 10325 c0 -8 5 -15 10 -15 6 0 10 7 10 15 0 8 -4 15 -10 15 -5
0 -10 -7 -10 -15z"/>
<path d="M2251 10305 c-28 -13 -31 -17 -21 -30 24 -29 85 -13 78 20 -4 25 -17
27 -57 10z"/>
<path d="M1116 10254 c-10 -25 -7 -74 4 -74 6 0 10 20 10 45 0 47 -4 55 -14
29z"/>
<path d="M5998 10234 c-5 -4 -8 -44 -8 -88 1 -60 3 -76 11 -64 11 20 8 164 -3
152z"/>
<path d="M8828 10143 c6 -2 18 -2 25 0 6 3 1 5 -13 5 -14 0 -19 -2 -12 -5z"/>
<path d="M1118 10066 c-12 -76 -10 -352 2 -340 7 7 9 80 8 200 -2 130 -5 174
-10 140z"/>
<path d="M8240 10101 c0 -13 29 -35 37 -28 7 8 -15 37 -28 37 -5 0 -9 -4 -9
-9z"/>
<path d="M8540 10011 c0 -11 5 -23 10 -26 6 -4 10 5 10 19 0 14 -4 26 -10 26
-5 0 -10 -9 -10 -19z"/>
<path d="M3620 9958 c0 -35 15 -67 26 -56 9 9 -4 76 -16 83 -6 4 -10 -8 -10
-27z"/>
<path d="M5987 9922 c-6 -56 2 -142 14 -142 12 0 12 177 0 184 -4 3 -11 -16
-14 -42z"/>
<path d="M7773 9934 c-7 -18 3 -29 35 -39 27 -8 41 17 22 40 -16 20 -49 19
-57 -1z"/>
<path d="M8552 9930 c0 -14 2 -19 5 -12 2 6 2 18 0 25 -3 6 -5 1 -5 -13z"/>
<path d="M8277 9913 c-14 -13 -6 -33 12 -33 19 0 35 23 24 34 -8 8 -28 8 -36
-1z"/>
<path d="M638 9883 c6 -2 18 -2 25 0 6 3 1 5 -13 5 -14 0 -19 -2 -12 -5z"/>
<path d="M643 9853 c9 -2 25 -2 35 0 9 3 1 5 -18 5 -19 0 -27 -2 -17 -5z"/>
<path d="M3565 9853 c-32 -8 -42 -20 -55 -69 -7 -25 -18 -48 -24 -50 -26 -9
-1074 -34 -1435 -34 -380 0 -735 -11 -851 -27 l-55 -7 40 -6 c75 -10 2029 22
2217 37 53 5 103 14 109 20 7 7 24 34 38 60 28 50 51 66 51 36 2 -69 121 -110
170 -58 l23 25 -46 0 c-62 0 -93 14 -112 50 -15 29 -27 33 -70 23z"/>
<path d="M8552 9840 c0 -14 2 -19 5 -12 2 6 2 18 0 25 -3 6 -5 1 -5 -13z"/>
<path d="M4640 9783 c-27 -10 -81 -45 -77 -50 10 -9 188 30 184 41 -4 12 -82
19 -107 9z"/>
<path d="M4465 9759 c-16 -5 -55 -8 -85 -7 -104 3 -305 -3 -340 -11 -33 -7
-31 -8 31 -15 108 -13 423 -3 442 13 18 14 14 32 -6 30 -7 0 -25 -5 -42 -10z"/>
<path d="M6283 9750 c-15 -17 -30 -20 -107 -20 -66 0 -87 -3 -79 -11 14 -14
188 -15 206 -1 7 6 32 7 67 2 67 -10 495 -26 1080 -40 407 -10 549 -18 508
-27 -10 -3 -18 -8 -18 -13 0 -4 17 -4 38 2 93 24 126 27 262 28 162 2 247 11
216 25 -10 5 -71 8 -135 7 -384 -4 -561 -1 -1156 18 -363 11 -672 23 -688 26
-15 4 -41 1 -58 -6 -27 -11 -32 -11 -50 9 -25 26 -64 27 -86 1z"/>
<path d="M994 9729 c-46 -49 -70 -56 -204 -62 -125 -5 -160 -11 -160 -28 0
-12 133 -11 245 1 61 7 99 17 117 30 34 25 37 25 31 0 -9 -33 7 -22 23 16 16
38 11 74 -10 74 -7 0 -25 -14 -42 -31z"/>
<path d="M3802 9741 c-19 -12 19 -21 90 -21 73 0 83 15 15 24 -69 8 -89 7
-105 -3z"/>
<path d="M5045 9740 c-262 -5 -281 -6 -200 -15 104 -11 1140 -14 1151 -2 4 4
5 9 3 11 -7 7 -660 11 -954 6z"/>
<path d="M8890 9696 c0 -20 66 -26 339 -32 140 -3 237 -2 243 4 15 15 -96 23
-282 21 -97 -1 -179 4 -200 10 -50 16 -100 14 -100 -3z"/>
<path d="M3752 9688 c2 -6 10 -14 16 -16 7 -2 10 2 6 12 -7 18 -28 22 -22 4z"/>
<path d="M8824 9685 c11 -8 25 -15 30 -15 6 0 2 7 -8 15 -11 8 -25 15 -30 15
-6 0 -2 -7 8 -15z"/>
<path d="M358 9665 c-4 -5 -79 -9 -167 -10 -154 -3 -221 -14 -178 -31 24 -9
543 8 553 19 4 4 5 10 1 13 -9 9 -201 17 -209 9z"/>
<path d="M9555 9659 c40 -13 358 -24 381 -14 36 15 -35 23 -226 23 -131 0
-176 -3 -155 -9z"/>
<path d="M8118 9643 c6 -2 18 -2 25 0 6 3 1 5 -13 5 -14 0 -19 -2 -12 -5z"/>
<path d="M4934 9599 c-19 -19 -38 -49 -43 -67 -5 -17 -15 -180 -22 -362 -12
-309 -11 -332 5 -348 16 -16 73 -17 786 -15 445 1 776 5 785 11 21 11 -500 22
-1102 22 l-453 0 0 88 c1 135 18 517 25 556 4 19 23 53 42 75 l35 41 426 0
c482 -1 746 -11 845 -35 64 -15 70 -15 136 5 57 18 76 20 108 11 46 -13 113
-14 132 -2 30 19 -104 31 -404 37 -170 3 -525 8 -788 12 l-478 7 -35 -36z"/>
<path d="M2076 9615 c4 -8 10 -15 15 -15 5 0 9 7 9 15 0 8 -7 15 -15 15 -9 0
-12 -6 -9 -15z"/>
<path d="M3003 9620 c-276 -3 -505 -8 -509 -12 -4 -5 -5 -8 -3 -9 34 -7 1036
-22 1069 -15 25 4 298 9 607 10 661 1 604 12 584 -113 -13 -80 -8 -223 9 -251
10 -17 23 193 19 299 -3 59 -8 85 -19 91 -15 10 -822 10 -1757 0z"/>
<path d="M9040 9621 c-85 -9 -36 -21 91 -21 66 0 109 4 109 10 0 6 -20 10 -44
10 -24 0 -56 2 -72 4 -16 2 -54 1 -84 -3z"/>
<path d="M2369 9593 c-11 -13 -14 -87 -14 -384 0 -246 4 -372 11 -379 21 -21
387 -30 1154 -29 890 1 1193 8 1211 26 7 7 10 15 7 18 -3 4 -97 1 -209 -5
-115 -6 -470 -10 -814 -10 -335 1 -641 -1 -680 -5 -104 -11 -506 15 -627 41
l-28 6 0 251 c1 269 12 443 29 460 6 6 11 15 11 19 0 15 -37 8 -51 -9z"/>
<path d="M6925 9605 c6 -2 66 -9 135 -15 159 -13 167 -15 175 -51 7 -32 21
-38 27 -11 7 29 -12 70 -35 76 -24 6 -319 7 -302 1z"/>
<path d="M7599 9595 c-69 -7 -140 -16 -157 -20 -23 -5 -36 -2 -48 9 -29 30
-58 17 -69 -31 -3 -18 -3 -33 2 -33 4 0 62 11 128 24 66 13 158 27 204 31 46
4 90 9 97 12 18 7 7 23 -14 22 -9 -1 -74 -7 -143 -14z"/>
<path d="M7782 9599 c2 -7 10 -15 17 -17 8 -3 12 1 9 9 -2 7 -10 15 -17 17 -8
3 -12 -1 -9 -9z"/>
<path d="M745 9579 c-176 -3 -366 -7 -422 -8 -98 -1 -103 -2 -103 -22 0 -17 4
-20 23 -15 65 19 1599 33 1692 16 28 -6 106 -16 174 -24 133 -15 151 -24 151
-73 0 -13 5 -23 10 -23 12 0 13 79 2 97 -35 55 -557 73 -1527 52z"/>
<path d="M43 9563 c-18 -2 -33 -9 -33 -14 0 -6 35 -9 88 -7 51 2 86 7 85 13
-3 11 -85 15 -140 8z"/>
<path d="M2458 9553 c6 -2 18 -2 25 0 6 3 1 5 -13 5 -14 0 -19 -2 -12 -5z"/>
<path d="M9606 9551 c-5 -8 3 -24 23 -45 21 -22 34 -48 41 -85 5 -30 10 -55
10 -57 0 -2 5 -4 10 -4 13 0 13 44 -2 92 -14 49 -71 117 -82 99z"/>
<path d="M9786 9545 c-8 -8 -19 -15 -25 -15 -6 0 -18 -11 -27 -25 -12 -19 -14
-33 -7 -62 5 -21 13 -37 18 -35 16 6 24 -30 24 -118 1 -47 5 -91 10 -98 15
-24 21 25 21 170 0 158 5 168 75 168 50 0 77 8 69 21 -9 16 -141 11 -158 -6z"/>
<path d="M8329 9545 c-1 -6 -1 -13 0 -17 0 -5 -8 -8 -18 -8 -11 0 -23 -4 -26
-10 -10 -16 41 -11 55 5 10 12 10 19 2 27 -7 7 -13 8 -13 3z"/>
<path d="M2770 9494 c0 -14 3 -14 15 -4 8 7 15 14 15 16 0 2 -7 4 -15 4 -8 0
-15 -7 -15 -16z"/>
<path d="M1263 9483 c-18 -7 -16 -23 2 -23 8 0 15 7 15 15 0 8 -1 15 -2 14 -2
0 -9 -3 -15 -6z"/>
<path d="M7010 9481 c0 -6 5 -13 10 -16 6 -3 10 1 10 9 0 9 -4 16 -10 16 -5 0
-10 -4 -10 -9z"/>
<path d="M7342 9425 c0 -16 2 -22 5 -12 2 9 2 23 0 30 -3 6 -5 -1 -5 -18z"/>
<path d="M2250 9337 c0 -31 -6 -61 -16 -75 -22 -31 0 -28 25 4 21 27 26 60 15
102 -11 40 -24 23 -24 -31z"/>
<path d="M9737 9353 c-11 -10 -8 -63 3 -63 6 0 10 16 10 35 0 36 -2 40 -13 28z"/>
<path d="M7008 9343 c6 -2 18 -2 25 0 6 3 1 5 -13 5 -14 0 -19 -2 -12 -5z"/>
<path d="M7240 9303 c0 -10 5 -25 10 -33 7 -11 10 -7 10 18 0 17 -4 32 -10 32
-5 0 -10 -8 -10 -17z"/>
<path d="M9683 9095 c5 -172 12 -219 28 -193 19 30 0 332 -22 353 -8 7 -10
-37 -6 -160z"/>
<path d="M4757 9192 c-14 -21 -22 -162 -9 -162 6 0 14 24 17 53 8 64 3 127 -8
109z"/>
<path d="M9788 9104 c-5 -4 -8 -19 -8 -33 -1 -14 -7 -37 -15 -51 -18 -32 -18
-40 0 -40 12 0 15 -16 15 -85 0 -84 -5 -96 -28 -73 -9 9 -12 9 -12 0 0 -21 38
-51 95 -76 29 -14 60 -34 67 -45 18 -29 25 -26 38 15 11 32 10 39 -7 62 -11
15 -40 33 -66 41 l-46 14 -6 61 c-3 34 -9 96 -13 139 -4 44 -10 75 -14 71z"/>
<path d="M8385 9051 c-7 -12 12 -24 25 -16 11 7 4 25 -10 25 -5 0 -11 -4 -15
-9z"/>
<path d="M2271 8975 l-1 -70 -75 -38 c-104 -54 -98 -76 11 -41 70 23 84 43 83
118 -1 90 -17 119 -18 31z"/>
<path d="M1146 8860 c-34 -30 -73 -97 -62 -107 11 -11 34 7 80 61 43 49 52 76
26 76 -5 0 -25 -14 -44 -30z"/>
<path d="M1736 8865 c-11 -8 -30 -15 -43 -15 -12 0 -39 -9 -60 -19 -29 -15
-69 -21 -178 -26 -158 -7 -199 -14 -148 -26 54 -11 301 9 375 31 81 24 150 26
184 4 39 -26 204 -7 204 24 0 4 -35 6 -78 4 -66 -3 -84 -1 -113 17 -40 25
-114 28 -143 6z"/>
<path d="M6550 8831 c20 -12 169 -33 182 -25 21 13 -26 26 -111 31 -58 3 -81
1 -71 -6z"/>
<path d="M6985 8809 c49 -15 247 -16 252 -1 4 9 -28 12 -139 11 -103 0 -135
-3 -113 -10z"/>
<path d="M7340 8810 c0 -5 6 -10 14 -10 8 0 18 5 21 10 3 6 -3 10 -14 10 -12
0 -21 -4 -21 -10z"/>
<path d="M7640 8810 c-18 -12 183 -12 275 0 46 5 22 7 -100 8 -89 1 -167 -3
-175 -8z"/>
<path d="M8227 8810 c-57 -10 -70 -19 -39 -27 18 -4 20 -8 11 -19 -15 -18 -8
-18 41 2 37 15 42 15 65 0 13 -9 30 -16 37 -16 9 0 9 3 -2 10 -28 19 11 31 83
27 67 -4 84 3 48 23 -23 12 -173 11 -244 0z"/>
<path d="M9200 8796 c0 -13 7 -29 15 -36 13 -10 15 -9 15 10 0 16 4 20 15 16
18 -7 20 5 3 22 -21 21 -48 14 -48 -12z"/>
<path d="M7475 8800 c-17 -6 -14 -9 17 -15 20 -4 51 -4 70 0 29 7 30 9 13 16
-26 10 -75 10 -100 -1z"/>
<path d="M8050 8802 c0 -18 33 -52 51 -52 25 0 35 25 19 45 -13 15 -70 21 -70
7z"/>
<path d="M4288 8773 c6 -2 18 -2 25 0 6 3 1 5 -13 5 -14 0 -19 -2 -12 -5z"/>
<path d="M1200 8760 c0 -5 19 -10 43 -9 32 0 37 2 22 9 -28 12 -65 12 -65 0z"/>
<path d="M718 8753 c6 -2 18 -2 25 0 6 3 1 5 -13 5 -14 0 -19 -2 -12 -5z"/>
<path d="M7750 8745 c-15 -18 -7 -43 16 -52 21 -8 57 28 48 50 -8 21 -47 22
-64 2z"/>
<path d="M4269 8739 c-10 -6 -7 -9 14 -9 29 0 35 5 14 13 -8 3 -20 1 -28 -4z"/>
<path d="M3766 8725 c-11 -8 -32 -15 -47 -15 -75 0 -97 -110 -80 -393 18 -309
48 -426 114 -446 81 -24 1263 -19 1288 6 20 20 -117 24 -643 22 -288 -1 -545
1 -573 5 -65 10 -91 28 -103 68 -11 35 -33 227 -53 461 l-12 138 29 42 c57 81
44 79 479 77 342 -1 543 5 532 16 -2 2 -177 8 -388 14 -211 5 -415 12 -454 15
-53 4 -75 2 -89 -10z"/>
<path d="M4897 8720 c-78 -10 -97 -15 -97 -29 0 -6 12 -6 32 0 18 5 102 9 187
9 110 0 152 3 144 11 -14 14 -181 20 -266 9z"/>
<path d="M5252 8721 c-19 -12 127 -21 221 -14 48 4 73 9 65 14 -17 11 -269 11
-286 0z"/>
<path d="M5685 8722 c-13 -6 7 -11 65 -15 126 -10 288 -8 269 3 -20 12 -309
22 -334 12z"/>
<path d="M6500 8720 c0 -5 7 -10 15 -10 8 0 15 5 15 10 0 6 -7 10 -15 10 -8 0
-15 -4 -15 -10z"/>
<path d="M6625 8720 c-3 -5 3 -10 15 -10 12 0 18 5 15 10 -3 6 -10 10 -15 10
-5 0 -12 -4 -15 -10z"/>
<path d="M2593 8713 c-91 -2 -153 -7 -153 -13 0 -13 -39 -11 490 -19 438 -7
457 -8 508 -29 98 -41 131 -19 37 24 -92 42 -253 49 -882 37z"/>
<path d="M6193 8710 c-34 -14 -29 -31 5 -19 15 5 61 13 102 18 l75 8 -80 1
c-44 0 -90 -3 -102 -8z"/>
<path d="M1695 8703 c-326 -2 -523 -7 -529 -13 -7 -7 95 -10 299 -10 258 0
315 -3 339 -15 20 -11 33 -12 40 -5 13 13 47 13 117 -2 48 -10 65 -9 110 5 32
10 112 19 192 23 157 8 198 25 50 22 -54 -2 -332 -4 -618 -5z"/>
<path d="M4740 8705 c0 -2 9 -9 20 -15 16 -9 20 -8 20 5 0 8 -9 15 -20 15 -11
0 -20 -2 -20 -5z"/>
<path d="M6880 8705 c0 -2 17 -12 37 -20 39 -17 71 -15 38 2 -25 13 -75 25
-75 18z"/>
<path d="M395 8679 c-471 -15 -422 -26 118 -28 l497 -1 1 -202 c0 -203 9 -278
22 -209 10 48 8 404 -2 419 -10 16 -159 32 -281 30 -47 -1 -206 -5 -355 -9z"/>
<path d="M6985 8680 c-3 -5 1 -10 9 -10 8 0 18 5 21 10 3 6 -1 10 -9 10 -8 0
-18 -4 -21 -10z"/>
<path d="M1107 8633 c-4 -3 -7 -18 -7 -32 1 -25 1 -25 15 -7 23 30 15 63 -8
39z"/>
<path d="M8620 8625 c0 -8 7 -15 15 -15 8 0 15 7 15 15 0 8 -7 15 -15 15 -8 0
-15 -7 -15 -15z"/>
<path d="M1168 8614 c-5 -4 -8 -16 -8 -28 0 -14 3 -17 11 -9 6 6 9 19 7 28 -1
9 -6 13 -10 9z"/>
<path d="M3510 8581 c0 -11 5 -42 10 -69 7 -32 8 -129 2 -291 l-8 -243 -32
-29 c-55 -49 -112 -59 -397 -70 -143 -5 -632 -9 -1087 -7 -729 3 -826 1 -813
-12 9 -9 46 -17 93 -22 115 -10 1867 -9 2012 2 137 10 160 15 160 36 0 16 35
54 49 54 6 0 11 -15 13 -32 l3 -33 18 32 c15 28 17 62 16 300 -1 299 -8 394
-26 401 -8 2 -13 -5 -13 -17z"/>
<path d="M1118 8534 c-5 -4 -8 -43 -8 -88 0 -56 3 -77 10 -70 6 6 10 44 8 88
-2 43 -6 74 -10 70z"/>
<path d="M8600 8446 c0 -40 21 -78 36 -64 5 6 -25 108 -32 108 -2 0 -4 -20 -4
-44z"/>
<path d="M1105 8328 c-12 -30 -1 -396 12 -409 14 -14 23 29 21 102 -1 32 6 57
21 82 20 33 20 35 3 30 -17 -4 -20 4 -25 87 -7 97 -20 140 -32 108z"/>
<path d="M6720 8318 c0 -34 -17 -37 -23 -5 -2 12 -5 -1 -6 -30 -1 -42 4 -57
23 -80 19 -22 27 -25 37 -16 18 18 13 77 -10 120 -20 37 -20 37 -21 11z"/>
<path d="M6146 8308 c-8 -33 -6 -208 4 -238 5 -15 8 31 9 118 1 78 -1 142 -3
142 -2 0 -6 -10 -10 -22z"/>
<path d="M1007 8110 c-4 -35 -7 -86 -7 -114 -1 -45 -9 -77 -35 -140 -7 -16 -6
-17 14 -6 37 19 54 75 55 185 1 122 -17 173 -27 75z"/>
<path d="M1545 8140 c-7 -12 2 -30 16 -30 12 0 12 27 0 35 -5 3 -12 1 -16 -5z"/>
<path d="M1592 8120 c0 -14 2 -19 5 -12 2 6 2 18 0 25 -3 6 -5 1 -5 -13z"/>
<path d="M3622 8065 c0 -16 2 -22 5 -12 2 9 2 23 0 30 -3 6 -5 -1 -5 -18z"/>
<path d="M6078 8084 c-3 -5 -9 -31 -13 -58 -4 -34 -15 -58 -34 -77 -25 -24
-37 -28 -127 -34 -54 -4 -252 -8 -440 -9 -271 -1 -344 2 -357 12 -21 17 -37 7
-37 -22 0 -34 23 -36 349 -35 344 0 557 11 596 30 36 18 62 62 74 125 9 44 1
89 -11 68z"/>
<path d="M6150 7931 c0 -37 23 -42 257 -53 226 -10 428 -4 438 13 10 15 -33
18 -320 22 -231 3 -287 7 -319 21 -49 20 -56 20 -56 -3z"/>
<path d="M8586 7923 c-17 -17 1 -23 77 -24 45 -1 109 -4 142 -8 l60 -6 -54 -7
c-56 -8 -69 -13 -57 -25 12 -12 145 -8 158 5 9 9 7 12 -11 12 -34 0 -16 17 26
25 26 5 33 9 23 15 -19 9 -355 22 -364 13z"/>
<path d="M9070 7916 c0 -8 5 -18 10 -21 6 -3 10 1 10 9 0 8 -4 18 -10 21 -5 3
-10 -1 -10 -9z"/>
<path d="M9124 7909 c-3 -6 0 -15 7 -20 15 -9 216 -13 207 -4 -7 7 -154 35
-183 35 -13 0 -27 -5 -31 -11z"/>
<path d="M9545 7910 c-14 -23 11 -30 103 -31 120 -1 145 -8 152 -39 4 -17 16
-27 38 -34 40 -11 51 -2 28 23 -14 16 -15 20 -2 30 8 7 29 11 47 9 33 -3 52
15 25 25 -8 3 -69 11 -135 18 -93 10 -124 10 -133 1 -15 -15 -84 -16 -93 -2
-3 6 -10 10 -15 10 -5 0 -12 -4 -15 -10z"/>
<path d="M6956 7900 c14 -14 87 -18 94 -5 3 6 -18 11 -50 13 -40 2 -52 0 -44
-8z"/>
<path d="M7145 7900 c-3 -6 0 -13 9 -16 22 -8 59 -1 64 14 5 15 -64 17 -73 2z"/>
<path d="M7350 7900 c14 -7 88 -14 363 -34 47 -3 64 7 29 18 -69 22 -427 37
-392 16z"/>
<path d="M8120 7898 c0 -18 18 -34 28 -24 3 4 -2 14 -11 23 -16 16 -17 16 -17
1z"/>
<path d="M7900 7890 c-10 -7 15 -10 80 -10 52 0 102 5 110 10 10 7 -15 10 -80
10 -52 0 -102 -5 -110 -10z"/>
<path d="M9385 7890 c-4 -6 7 -10 24 -10 17 0 31 5 31 10 0 6 -11 10 -24 10
-14 0 -28 -4 -31 -10z"/>
<path d="M8258 7883 c6 -2 18 -2 25 0 6 3 1 5 -13 5 -14 0 -19 -2 -12 -5z"/>
<path d="M8615 7859 c56 -11 105 -11 105 1 0 6 -30 10 -72 9 -66 -1 -69 -2
-33 -10z"/>
<path d="M6718 7849 c-20 -11 -24 -39 -7 -39 20 0 49 21 49 35 0 17 -17 19
-42 4z"/>
<path d="M7543 7853 c9 -2 23 -2 30 0 6 3 -1 5 -18 5 -16 0 -22 -2 -12 -5z"/>
<path d="M9140 7850 c0 -6 30 -10 69 -10 39 0 73 5 76 10 4 6 -22 10 -69 10
-44 0 -76 -4 -76 -10z"/>
<path d="M3 7825 c-3 -9 -3 -18 0 -21 9 -9 27 6 27 22 0 19 -19 18 -27 -1z"/>
<path d="M253 7833 c-128 -3 -183 -7 -183 -15 0 -14 652 -4 690 11 25 10 -73
11 -507 4z"/>
<path d="M9920 7810 c0 -5 4 -10 9 -10 6 0 13 5 16 10 3 6 -1 10 -9 10 -9 0
-16 -4 -16 -10z"/>
<path d="M243 7783 c9 -2 23 -2 30 0 6 3 -1 5 -18 5 -16 0 -22 -2 -12 -5z"/>
<path d="M518 7783 c18 -2 45 -2 60 0 15 2 0 4 -33 4 -33 0 -45 -2 -27 -4z"/>
<path d="M5535 7750 c-35 -4 -45 -7 -32 -12 23 -10 113 -9 147 1 21 7 18 8
-20 12 -25 2 -67 2 -95 -1z"/>
<path d="M2775 7739 c-22 -4 -86 -8 -142 -8 -105 -1 -133 -6 -133 -23 0 -15
278 -5 313 12 28 14 37 31 15 29 -7 -1 -31 -5 -53 -10z"/>
<path d="M4275 7739 c-4 -6 -5 -13 -2 -16 7 -7 27 6 27 18 0 12 -17 12 -25 -2z"/>
<path d="M4632 7743 c-22 -9 -2 -23 32 -23 18 0 47 -5 64 -11 43 -15 61 -77
69 -236 3 -68 10 -123 15 -123 5 0 7 82 6 182 l-3 183 -35 11 c-43 14 -131 24
-148 17z"/>
<path d="M4932 7741 c-77 -13 -74 -1 -62 -327 14 -366 21 -431 56 -484 l27
-41 891 5 c878 6 1093 11 1065 26 -14 8 -642 23 -729 18 -25 -1 -304 -3 -620
-3 -626 0 -605 -2 -637 58 -16 28 -18 65 -19 317 0 157 -4 303 -8 325 -7 34
-5 43 13 59 19 17 49 20 280 30 143 6 263 14 267 19 9 9 -465 7 -524 -2z"/>
<path d="M5813 7743 c9 -2 23 -2 30 0 6 3 -1 5 -18 5 -16 0 -22 -2 -12 -5z"/>
<path d="M5970 7747 c0 -11 58 -37 82 -37 20 0 21 2 7 15 -15 16 -89 33 -89
22z"/>
<path d="M6110 7738 c-19 -9 -21 -12 -9 -15 9 -2 32 3 50 11 31 13 32 14 9 15
-14 0 -36 -5 -50 -11z"/>
<path d="M6568 7743 c7 -3 16 -2 19 1 4 3 -2 6 -13 5 -11 0 -14 -3 -6 -6z"/>
<path d="M6620 7740 c0 -12 47 -12 75 0 15 6 8 9 -27 9 -27 1 -48 -3 -48 -9z"/>
<path d="M8030 7735 c-7 -9 -10 -18 -7 -21 10 -11 37 5 37 21 0 19 -14 19 -30
0z"/>
<path d="M3328 7733 c-420 -3 -538 -13 -320 -28 113 -8 981 1 1140 12 175 11
92 23 -150 21 -134 -2 -435 -4 -670 -5z"/>
<path d="M4350 7730 c37 -12 179 -12 160 0 -8 5 -53 9 -100 9 -58 -1 -77 -4
-60 -9z"/>
<path d="M7280 7697 c0 -53 15 -63 25 -16 5 22 3 36 -9 47 -15 15 -16 12 -16
-31z"/>
<path d="M1295 7724 c-66 -2 -365 -8 -665 -15 -299 -6 -554 -15 -565 -20 -19
-9 359 -7 1550 8 286 3 546 3 578 -1 95 -12 91 1 95 -412 l3 -352 -28 -5 c-68
-13 -162 -18 -528 -27 -214 -5 -400 -13 -412 -16 -39 -11 -25 -22 37 -29 91
-11 918 17 956 32 15 6 16 39 11 382 -4 207 -9 389 -13 404 -12 51 -16 52
-474 53 -234 0 -479 -1 -545 -2z"/>
<path d="M2433 7709 c-51 -19 -53 -29 -55 -410 -2 -195 1 -364 5 -376 10 -28
48 -39 186 -53 110 -11 565 -3 591 10 25 14 -43 19 -335 24 -223 3 -295 8
-352 22 l-73 18 1 305 c1 351 5 402 39 429 28 23 24 43 -7 31z"/>
<path d="M7777 7713 c-16 -15 -5 -24 25 -21 41 4 50 28 11 28 -17 0 -33 -3
-36 -7z"/>
<path d="M7917 7714 c-10 -10 2 -24 22 -24 9 0 26 7 37 15 18 13 17 14 -17 15
-20 0 -39 -3 -42 -6z"/>
<path d="M7396 7488 c-7 -136 -9 -206 -7 -255 1 -28 5 -33 26 -33 25 0 33 14
15 25 -6 4 -10 80 -10 196 0 104 -4 189 -9 189 -5 0 -12 -55 -15 -122z"/>
<path d="M4805 7308 c-7 -18 -7 -26 -5 -193 1 -62 -3 -115 -11 -140 -14 -39
-16 -40 -69 -47 -30 -4 -278 -11 -551 -16 -273 -5 -502 -13 -510 -18 -19 -13
455 -20 833 -14 228 4 311 9 320 18 9 9 14 61 16 175 3 162 -7 270 -23 235z"/>
<path d="M689 7270 c13 -11 27 -20 32 -20 18 0 8 10 -23 25 l-33 16 24 -21z"/>
<path d="M662 7238 c3 -7 20 -14 39 -16 l34 -2 -34 15 c-40 18 -44 18 -39 3z"/>
<path d="M1706 7208 c-21 -12 -20 -24 4 -48 24 -24 56 -26 64 -4 14 36 -33 72
-68 52z"/>
<path d="M7395 7168 c-9 -24 8 -124 20 -118 11 6 7 97 -5 120 -8 13 -10 13
-15 -2z"/>
<path d="M7298 7029 c-3 -28 -12 -57 -21 -66 -10 -10 -48 -19 -108 -24 -136
-14 -157 -21 -89 -30 75 -10 198 0 216 18 9 10 14 37 14 84 0 38 -2 69 -4 69
-2 0 -6 -23 -8 -51z"/>
<path d="M1103 6966 c-50 -71 -71 -78 -283 -87 -102 -4 -298 -8 -436 -9 -260
0 -374 -7 -374 -21 0 -5 239 -9 530 -9 l530 0 40 62 c22 34 43 64 45 67 3 3 4
-22 3 -55 -3 -56 -2 -59 22 -62 14 -1 32 2 40 8 13 9 13 11 0 20 -8 5 -19 11
-25 13 -5 2 -8 20 -7 41 6 89 -34 104 -85 32z"/>
<path d="M3270 6940 c0 -5 14 -10 30 -10 17 0 30 5 30 10 0 6 -13 10 -30 10
-16 0 -30 -4 -30 -10z"/>
<path d="M8840 6941 c8 -5 29 -11 45 -15 28 -6 29 -5 11 9 -11 8 -31 15 -45
15 -19 -1 -22 -3 -11 -9z"/>
<path d="M3383 6924 c-7 -3 -13 -12 -13 -21 0 -12 9 -14 50 -8 39 5 53 3 66
-9 17 -17 74 -22 74 -6 0 26 -140 61 -177 44z"/>
<path d="M7485 6915 c32 -15 364 -19 515 -6 l75 6 -124 8 c-68 4 -208 7 -310
6 -166 -1 -183 -2 -156 -14z"/>
<path d="M8160 6880 c0 -5 9 -14 20 -20 16 -8 18 -8 14 4 -6 17 -34 30 -34 16z"/>
<path d="M3273 6873 c9 -2 23 -2 30 0 6 3 -1 5 -18 5 -16 0 -22 -2 -12 -5z"/>
<path d="M4850 6855 c-17 -20 9 -21 36 0 19 14 19 14 -2 15 -12 0 -27 -7 -34
-15z"/>
<path d="M5445 6860 c3 -5 12 -10 20 -10 8 0 17 5 20 10 4 6 -5 10 -20 10 -15
0 -24 -4 -20 -10z"/>
<path d="M1198 6823 c7 -3 16 -2 19 1 4 3 -2 6 -13 5 -11 0 -14 -3 -6 -6z"/>
<path d="M7323 6823 c9 -2 23 -2 30 0 6 3 -1 5 -18 5 -16 0 -22 -2 -12 -5z"/>
<path d="M7535 6821 c6 -5 23 -13 39 -17 22 -5 28 -4 24 7 -2 8 -20 15 -39 17
-23 2 -31 0 -24 -7z"/>
<path d="M6475 6790 c-3 -5 3 -10 15 -10 12 0 18 5 15 10 -3 6 -10 10 -15 10
-5 0 -12 -4 -15 -10z"/>
<path d="M6265 6773 c-11 -2 -30 -6 -42 -9 -27 -5 -31 -24 -5 -24 30 0 92 21
92 30 0 10 -10 11 -45 3z"/>
<path d="M6360 6760 c-11 -7 -7 -10 17 -10 17 0 35 5 38 10 8 13 -35 13 -55 0z"/>
<path d="M4740 6750 c0 -6 33 -10 80 -10 47 0 80 4 80 10 0 6 -33 10 -80 10
-47 0 -80 -4 -80 -10z"/>
<path d="M5682 6749 c2 -7 10 -15 17 -17 8 -3 12 1 9 9 -2 7 -10 15 -17 17 -8
3 -12 -1 -9 -9z"/>
<path d="M5735 6751 c-9 -16 13 -23 35 -11 11 6 20 13 20 15 0 9 -49 5 -55 -4z"/>
<path d="M5982 6744 c9 -9 21 -13 27 -9 16 10 3 25 -22 25 -20 0 -20 -1 -5
-16z"/>
<path d="M3740 6743 c-63 -2 -119 -8 -124 -13 -12 -12 407 -14 530 -3 190 16
-48 26 -406 16z"/>
<path d="M6127 6736 c-23 -23 -28 -99 -17 -261 5 -82 10 -157 10 -166 0 -12 8
-14 32 -11 29 4 30 6 11 13 -18 6 -22 19 -28 81 -7 77 6 311 19 341 10 21 -7
23 -27 3z"/>
<path d="M1005 6653 c-4 -48 -6 -222 -3 -388 5 -343 8 -359 69 -361 20 -1 50
-9 68 -18 38 -20 146 -25 163 -8 17 17 10 20 -63 31 -97 14 -172 43 -186 72
-10 21 -29 410 -27 555 0 73 24 152 48 159 12 3 503 8 1091 12 1068 6 1225 2
1261 -28 11 -9 14 -56 14 -228 0 -256 12 -387 36 -410 15 -15 16 -13 8 29 -5
25 -9 178 -9 342 0 163 -4 300 -8 305 -12 12 -646 20 -1614 22 l-841 1 -7 -87z"/>
<path d="M533 6723 c-18 -2 -33 -8 -33 -14 0 -10 328 -13 379 -3 17 4 28 10
25 15 -5 9 -305 10 -371 2z"/>
<path d="M57 6713 c-26 -2 -45 -8 -42 -14 7 -10 298 -12 360 -2 31 5 35 8 20
14 -20 8 -248 9 -338 2z"/>
<path d="M906 6628 c9 -60 23 -83 24 -38 0 44 -10 80 -21 80 -5 0 -6 -19 -3
-42z"/>
<path d="M3545 6655 c-3 -8 -7 -22 -10 -31 -6 -19 13 -241 23 -269 4 -11 10
45 13 125 3 80 9 155 14 168 6 18 4 22 -14 22 -12 0 -24 -7 -26 -15z"/>
<path d="M8623 6463 c1 -113 6 -176 13 -183 21 -21 27 9 15 64 -7 28 -16 105
-21 171 l-8 120 1 -172z"/>
<path d="M910 6508 c0 -7 5 -20 10 -28 8 -12 10 -9 10 13 0 15 -4 27 -10 27
-5 0 -10 -6 -10 -12z"/>
<path d="M8580 6465 c0 -8 5 -15 10 -15 6 0 10 7 10 15 0 8 -4 15 -10 15 -5 0
-10 -7 -10 -15z"/>
<path d="M5995 6419 c-10 -15 3 -25 16 -12 7 7 7 13 1 17 -6 3 -14 1 -17 -5z"/>
<path d="M5984 6344 c3 -9 6 -18 6 -20 0 -2 7 -4 15 -4 13 0 14 4 5 20 -13 24
-35 27 -26 4z"/>
<path d="M923 6290 c0 -30 2 -43 4 -27 2 15 2 39 0 55 -2 15 -4 2 -4 -28z"/>
<path d="M8590 6312 c0 -12 19 -26 26 -19 2 2 -2 10 -11 17 -9 8 -15 8 -15 2z"/>
<path d="M6165 6273 c-11 -3 -26 -10 -32 -15 -15 -12 -18 -48 -4 -48 6 0 71
47 90 66 5 5 -28 3 -54 -3z"/>
<path d="M3600 6244 c0 -21 18 -54 30 -54 14 0 12 44 -2 58 -17 17 -28 15 -28
-4z"/>
<path d="M3560 6218 c0 -18 18 -34 28 -24 3 4 -2 14 -11 23 -16 16 -17 16 -17
1z"/>
<path d="M8622 6185 c0 -16 2 -22 5 -12 2 9 2 23 0 30 -3 6 -5 -1 -5 -18z"/>
<path d="M915 6110 c-4 -19 -24 -72 -45 -116 -33 -72 -42 -83 -74 -94 -43 -14
-46 -27 -10 -36 70 -18 106 31 131 172 14 84 13 142 -2 74z"/>
<path d="M3550 6121 c0 -12 29 -23 42 -15 6 4 5 10 -3 15 -18 11 -39 11 -39 0z"/>
<path d="M3588 6083 c-15 -4 -45 -59 -36 -68 2 -2 16 12 32 31 30 38 30 42 4
37z"/>
<path d="M8370 6025 c13 -14 27 -25 32 -25 16 0 8 29 -11 40 -35 18 -45 11
-21 -15z"/>
<path d="M3438 5985 c-54 -36 -70 -75 -33 -75 17 0 85 68 85 85 0 21 -10 19
-52 -10z"/>
<path d="M7328 5994 c-47 -17 -229 -44 -304 -45 -33 0 -68 -4 -78 -8 -44 -17
20 -20 202 -10 239 14 232 12 232 49 0 33 0 33 -52 14z"/>
<path d="M7400 5986 c0 -14 8 -29 18 -34 20 -11 270 -27 261 -18 -4 4 -55 14
-115 22 -72 10 -118 22 -136 35 l-28 20 0 -25z"/>
<path d="M8590 6003 c0 -4 5 -15 10 -23 8 -13 10 -13 10 2 0 9 -4 20 -10 23
-5 3 -10 3 -10 -2z"/>
<path d="M8723 5953 c9 -2 23 -2 30 0 6 3 -1 5 -18 5 -16 0 -22 -2 -12 -5z"/>
<path d="M8620 5936 c0 -8 5 -18 10 -21 6 -3 10 1 10 9 0 8 -4 18 -10 21 -5 3
-10 -1 -10 -9z"/>
<path d="M2240 5928 c-52 -14 -572 -23 -607 -11 -29 10 -266 -3 -290 -16 -7
-3 -9 -11 -5 -17 5 -8 132 -9 457 -2 248 5 461 9 475 9 14 -1 120 -4 235 -7
116 -3 206 -2 202 2 -4 4 -97 13 -207 20 -110 6 -206 16 -213 21 -7 6 -25 6
-47 1z"/>
<path d="M6097 5934 c-10 -11 3 -24 24 -24 23 0 25 15 3 24 -19 7 -19 7 -27 0z"/>
<path d="M557 5923 c-15 -14 -5 -21 41 -26 26 -4 59 -9 75 -13 31 -7 36 6 11
30 -16 16 -114 23 -127 9z"/>
<path d="M5221 5922 c-23 -16 4 -24 80 -24 70 0 89 5 75 19 -11 11 -139 15
-155 5z"/>
<path d="M5415 5920 c-13 -5 22 -9 97 -9 68 -1 119 3 123 9 8 12 -191 12 -220
0z"/>
<path d="M5740 5920 c0 -6 37 -10 90 -10 53 0 90 4 90 10 0 6 -37 10 -90 10
-53 0 -90 -4 -90 -10z"/>
<path d="M2805 5909 c-41 -4 -46 -7 -30 -15 40 -18 410 -6 390 14 -8 8 -290 9
-360 1z"/>
<path d="M4385 5911 c-149 -12 -22 -21 313 -21 l347 -1 50 -24 c46 -23 51 -24
63 -8 23 31 11 58 -15 32 -9 -9 -19 -6 -39 10 -26 20 -34 21 -338 19 -171 -1
-342 -4 -381 -7z"/>
<path d="M4225 5894 l-40 -14 39 5 c37 4 54 11 45 19 -2 2 -22 -3 -44 -10z"/>
<path d="M4028 5888 c-21 -6 -38 -15 -38 -20 0 -6 6 -8 13 -5 8 3 43 8 80 12
37 4 64 11 61 16 -7 11 -68 10 -116 -3z"/>
<path d="M6 5881 c-7 -11 93 -21 209 -21 135 0 278 12 263 21 -17 11 -465 11
-472 0z"/>
<path d="M3190 5873 c0 -15 36 -23 105 -23 44 0 56 3 48 11 -15 15 -153 25
-153 12z"/>
<path d="M3375 5870 c-4 -6 3 -10 14 -10 25 0 27 6 6 13 -8 4 -17 2 -20 -3z"/>
<path d="M5487 5803 c-7 -11 10 -40 18 -31 4 4 3 14 -3 24 -5 9 -12 12 -15 7z"/>
<path d="M5940 5800 c0 -5 11 -10 24 -10 14 0 28 5 31 10 4 6 -7 10 -24 10
-17 0 -31 -4 -31 -10z"/>
<path d="M5055 5790 c-22 -5 -66 -9 -97 -9 -37 -1 -58 -5 -58 -13 0 -8 27 -9
98 -5 53 4 135 7 182 7 63 1 80 3 67 11 -24 14 -144 20 -192 9z"/>
<path d="M5310 5786 c0 -9 30 -14 35 -6 4 6 -3 10 -14 10 -12 0 -21 -2 -21 -4z"/>
<path d="M4829 5759 c-7 -15 -10 -121 -7 -358 4 -362 9 -395 58 -421 20 -11
81 -7 103 7 15 9 -16 23 -50 23 -77 0 -86 44 -87 416 -1 274 1 304 17 321 22
25 22 33 -3 33 -10 0 -24 -9 -31 -21z"/>
<path d="M4050 5761 c0 -12 49 -18 94 -13 60 7 40 22 -29 22 -36 0 -65 -4 -65
-9z"/>
<path d="M4246 5761 c-11 -18 106 -29 132 -12 10 6 8 10 -10 14 -34 10 -116 8
-122 -2z"/>
<path d="M2598 5750 c-210 -3 -301 -8 -309 -17 -6 -6 -15 -35 -20 -64 -13 -80
-22 -558 -11 -609 7 -39 10 -26 15 95 4 77 12 203 18 280 6 77 10 163 10 191
-1 65 16 82 103 97 51 9 88 8 163 -2 162 -22 223 -24 310 -7 45 8 161 18 258
22 100 4 170 11 163 15 -13 9 -176 9 -700 -1z"/>
<path d="M30 5740 c-14 -4 448 -9 1026 -11 861 -3 1054 -6 1067 -17 14 -12 15
-28 10 -106 -7 -106 2 -175 20 -157 10 10 27 288 18 297 -8 8 -2116 2 -2141
-6z"/>
<path d="M3417 5738 c16 -8 39 -8 75 -1 l53 10 -75 1 c-60 1 -71 -1 -53 -10z"/>
<path d="M4610 5726 c0 -9 5 -16 10 -16 6 0 10 4 10 9 0 6 -4 13 -10 16 -5 3
-10 -1 -10 -9z"/>
<path d="M2146 5385 c-9 -24 -7 -65 3 -65 12 0 21 52 12 69 -6 10 -9 10 -15
-4z"/>
<path d="M2145 5258 c-4 -21 -4 -50 0 -65 l8 -28 9 37 c6 24 6 48 0 65 l-9 28
-8 -37z"/>
<path d="M4743 5250 c0 -25 2 -35 4 -22 2 12 2 32 0 45 -2 12 -4 2 -4 -23z"/>
<path d="M2147 5135 c-4 -9 -4 -53 -1 -99 6 -71 4 -83 -11 -96 -15 -13 -87
-16 -449 -19 -257 -2 -488 1 -571 8 -114 9 -154 8 -220 -4 -80 -14 -402 -34
-577 -36 -75 -1 -87 -3 -63 -11 68 -22 633 -4 703 23 13 5 61 5 115 -1 102
-11 977 -14 1051 -4 44 6 47 9 57 47 13 47 4 150 -15 186 -11 20 -14 21 -19 6z"/>
<path d="M4730 5125 c0 -8 5 -15 10 -15 6 0 10 7 10 15 0 8 -4 15 -10 15 -5 0
-10 -7 -10 -15z"/>
<path d="M4736 5028 c-12 -41 -35 -56 -106 -68 -40 -7 -328 -15 -735 -20 -368
-5 -672 -9 -675 -10 -3 -1 9 -6 25 -10 77 -20 1412 -3 1467 19 30 11 42 41 36
87 l-4 29 -8 -27z"/>
<path d="M5080 4976 c-14 -8 -42 -16 -63 -20 -95 -17 0 -23 340 -21 363 2 423
6 423 29 0 8 -85 11 -313 11 -171 1 -323 4 -337 7 -14 4 -36 1 -50 -6z"/>
<path d="M5819 4960 c24 -21 61 -27 61 -10 0 13 -34 30 -62 30 l-23 -1 24 -19z"/>
<path d="M2320 4921 c-52 -10 268 -19 460 -13 116 4 153 8 125 13 -49 10 -536
9 -585 0z"/>
<path d="M2990 4923 c0 -12 157 -29 167 -19 12 12 -5 16 -86 23 -53 4 -81 2
-81 -4z"/>
<path d="M15 4880 c-4 -6 10 -10 34 -10 22 0 43 5 46 10 4 6 -10 10 -34 10
-22 0 -43 -4 -46 -10z"/>
<path d="M4173 4808 c-16 -20 -23 -47 -14 -52 11 -7 53 33 48 47 -5 17 -23 19
-34 5z"/>
<path d="M0 4801 c0 -10 34 -21 68 -21 33 0 27 17 -9 24 -43 8 -59 8 -59 -3z"/>
<path d="M3068 4803 c6 -2 18 -2 25 0 6 3 1 5 -13 5 -14 0 -19 -2 -12 -5z"/>
<path d="M3580 4782 l-55 -27 -3 -377 c-1 -230 2 -386 8 -402 6 -16 17 -26 30
-26 19 0 19 2 8 23 -10 16 -14 116 -16 394 l-4 372 56 27 c31 15 59 30 62 35
10 17 -32 8 -86 -19z"/>
<path d="M5220 4802 c0 -12 58 -27 67 -18 9 9 0 15 -35 22 -20 4 -32 2 -32 -4z"/>
<path d="M5350 4800 c-8 -5 -11 -12 -8 -16 10 -9 38 3 38 16 0 12 -10 13 -30
0z"/>
<path d="M490 4791 l-65 -6 49 -8 c27 -4 111 -4 186 -1 163 8 207 2 220 -30
16 -44 24 -341 10 -420 -13 -77 -7 -137 11 -119 28 28 41 533 15 569 -13 17
-28 19 -188 20 -95 1 -202 -1 -238 -5z"/>
<path d="M1100 4771 c-15 -36 -56 -76 -93 -90 l-29 -11 6 -228 c4 -125 9 -291
12 -369 l6 -143 552 1 c303 1 655 4 781 8 184 5 86 8 -485 14 -393 4 -738 10
-767 13 l-51 6 -7 72 c-4 39 -5 189 -3 334 3 251 4 264 23 275 11 6 42 31 68
56 60 56 80 59 370 60 114 1 207 5 207 10 0 13 -144 21 -371 21 l-207 0 -12
-29z"/>
<path d="M1755 4790 l-30 -7 39 -8 c48 -10 397 1 446 14 43 11 -409 12 -455 1z"/>
<path d="M2483 4793 c32 -2 81 -2 110 0 29 2 3 3 -58 3 -60 0 -84 -1 -52 -3z"/>
<path d="M260 4345 c-10 -12 -10 -21 -2 -40 12 -26 20 -29 46 -19 21 8 21 60
0 68 -23 9 -30 8 -44 -9z"/>
<path d="M3437 4202 c-10 -10 -17 -29 -17 -43 0 -23 0 -23 19 -4 22 23 37 65
23 65 -5 0 -16 -8 -25 -18z"/>
<path d="M870 4118 c-17 -22 -34 -57 -40 -77 -20 -77 -9 -73 -281 -76 -134 -2
-262 -7 -284 -12 -38 -8 -35 -9 45 -16 47 -4 157 -7 246 -7 89 0 175 -5 192
-11 47 -16 78 10 122 106 62 133 61 178 0 93z"/>
<path d="M3382 4053 c-7 -3 -24 -22 -37 -43 -19 -31 -32 -39 -65 -45 -22 -4
-40 -10 -40 -15 0 -16 30 -19 77 -7 37 9 49 17 51 33 2 12 12 30 23 40 30 27
25 51 -9 37z"/>
<path d="M2640 3963 c0 -6 10 -13 23 -17 41 -11 302 -19 352 -10 43 7 30 9
-100 15 -82 4 -178 10 -212 14 -41 5 -63 4 -63 -2z"/>
<path d="M4455 3960 c3 -5 32 -10 63 -9 41 0 51 3 37 9 -29 12 -108 12 -100 0z"/>
<path d="M4835 3960 c-12 -5 179 -9 450 -9 287 0 476 3 485 9 19 12 -906 12
-935 0z"/>
<path d="M0 3952 c0 -15 26 -22 88 -22 74 0 57 18 -26 26 -40 5 -62 3 -62 -4z"/>
<path d="M4140 3951 c-56 -10 -12 -21 83 -21 89 0 130 7 121 21 -6 10 -149 10
-204 0z"/>
<path d="M3895 3940 c-4 -6 15 -10 49 -10 31 0 56 5 56 10 0 6 -22 10 -49 10
-28 0 -53 -4 -56 -10z"/>
<path d="M4345 3869 c-11 -17 1 -21 44 -14 57 9 61 25 7 25 -25 0 -48 -5 -51
-11z"/>
<path d="M4575 3859 c-4 -6 -5 -13 -2 -16 7 -7 27 6 27 18 0 12 -17 12 -25 -2z"/>
<path d="M45 3851 c-32 -5 -36 -8 -20 -14 33 -12 335 -26 415 -20 57 4 91 1
135 -12 51 -15 98 -17 315 -16 140 1 271 4 290 7 66 10 80 14 80 25 0 8 -79
10 -282 7 -202 -4 -305 -1 -358 8 -86 14 -515 26 -575 15z"/>
<path d="M1351 3849 c-13 -5 -22 -11 -20 -13 2 -2 39 -6 82 -10 83 -7 105 5
40 23 -46 13 -70 13 -102 0z"/>
<path d="M1875 3840 c-91 -6 -125 -15 -125 -31 0 -12 15 -11 205 6 88 8 165
15 170 15 6 0 3 5 -5 10 -16 10 -98 10 -245 0z"/>
<path d="M1520 3826 c0 -10 9 -16 21 -16 24 0 21 23 -4 28 -10 2 -17 -3 -17
-12z"/>
<path d="M2244 3818 c4 -13 10 -67 13 -121 3 -54 10 -100 16 -104 11 -7 4 201
-8 230 -11 25 -29 21 -21 -5z"/>
<path d="M4785 3814 c4 -16 11 -167 14 -336 6 -323 21 -432 21 -162 2 462 -1
513 -29 522 -11 4 -12 -2 -6 -24z"/>
<path d="M5083 3830 c-13 -5 -23 -12 -23 -16 0 -8 92 4 123 16 17 7 12 9 -28
9 -27 0 -60 -4 -72 -9z"/>
<path d="M2876 3821 c-9 -15 23 -36 35 -24 8 8 5 14 -9 22 -12 6 -23 7 -26 2z"/>
<path d="M4899 3811 l-24 -19 -3 -327 c-2 -224 0 -325 8 -320 6 4 10 92 10
248 1 280 9 363 40 407 25 36 7 42 -31 11z"/>
<path d="M1598 3813 c7 -3 16 -2 19 1 4 3 -2 6 -13 5 -11 0 -14 -3 -6 -6z"/>
<path d="M1670 3811 c35 -20 60 -23 60 -7 0 12 -10 16 -37 16 -26 -1 -33 -3
-23 -9z"/>
<path d="M2344 3774 c-7 -46 0 -321 13 -579 5 -101 8 -121 14 -90 16 84 5 715
-12 715 -4 0 -11 -21 -15 -46z"/>
<path d="M2528 3813 c6 -2 18 -2 25 0 6 3 1 5 -13 5 -14 0 -19 -2 -12 -5z"/>
<path d="M2948 3813 c7 -3 16 -2 19 1 4 3 -2 6 -13 5 -11 0 -14 -3 -6 -6z"/>
<path d="M2248 3114 c-3 -39 -11 -61 -22 -70 -31 -22 -129 -26 -556 -22 -359
3 -420 6 -451 20 -30 14 -47 15 -100 7 -35 -5 -152 -12 -259 -15 -203 -6 -312
-20 -195 -25 33 -1 211 -3 395 -4 184 -1 448 -7 585 -13 138 -7 326 -9 418 -5
162 6 169 7 184 30 18 27 31 153 16 153 -6 0 -13 -25 -15 -56z"/>
<path d="M4799 3113 c-8 -9 -40 -36 -73 -60 l-58 -43 -207 -1 c-113 -1 -280
-5 -371 -9 -137 -5 -104 -7 200 -8 201 -1 380 2 397 7 37 11 143 98 143 118 0
18 -15 16 -31 -4z"/>
<path d="M2372 3012 l3 -27 283 -3 c163 -1 282 1 282 7 0 5 -111 12 -247 16
-158 5 -262 12 -286 20 -38 13 -38 13 -35 -13z"/>
<path d="M4910 3019 c0 -4 9 -13 20 -19 16 -8 20 -8 20 3 0 8 -9 17 -20 20
-11 3 -20 1 -20 -4z"/>
<path d="M20 3011 c25 -14 70 -22 70 -12 0 12 -26 21 -58 21 -20 -1 -23 -3
-12 -9z"/>
<path d="M220 3004 c0 -17 22 -14 28 4 2 7 -3 12 -12 12 -9 0 -16 -7 -16 -16z"/>
<path d="M320 3010 c-17 -6 1 -8 57 -9 45 -1 85 4 88 9 7 12 -108 12 -145 0z"/>
<path d="M160 3000 c0 -5 7 -10 16 -10 8 0 12 5 9 10 -3 6 -10 10 -16 10 -5 0
-9 -4 -9 -10z"/>
<path d="M520 3000 c0 -5 9 -10 20 -10 11 0 20 5 20 10 0 6 -9 10 -20 10 -11
0 -20 -4 -20 -10z"/>
<path d="M3595 3001 c-3 -5 -2 -12 2 -14 12 -8 63 4 63 14 0 12 -57 12 -65 0z"/>
<path d="M3725 3000 c3 -5 29 -10 56 -10 31 0 48 4 44 10 -3 6 -29 10 -56 10
-31 0 -48 -4 -44 -10z"/>
<path d="M5250 3000 c0 -5 9 -10 20 -10 11 0 20 5 20 10 0 6 -9 10 -20 10 -11
0 -20 -4 -20 -10z"/>
<path d="M3000 2991 c0 -12 109 -22 156 -14 l39 7 -40 7 c-56 11 -155 11 -155
0z"/>
<path d="M3345 2990 l-70 -6 88 -2 c57 -1 86 2 82 8 -3 6 -12 9 -18 8 -7 -1
-43 -4 -82 -8z"/>
<path d="M112 2887 c-18 -21 11 -27 138 -27 115 0 163 13 83 23 -145 18 -209
19 -221 4z"/>
<path d="M585 2890 c-18 -28 98 -47 140 -22 18 10 15 11 -20 12 -22 0 -57 4
-78 9 -20 5 -39 5 -42 1z"/>
<path d="M415 2879 c-10 -15 1 -23 20 -15 9 3 13 10 10 16 -8 13 -22 13 -30
-1z"/>
<path d="M499 2879 c-10 -6 -4 -9 19 -9 17 0 32 2 32 4 0 9 -39 13 -51 5z"/>
<path d="M780 2883 c0 -13 57 -23 130 -23 30 0 61 -4 69 -9 12 -8 16 -70 22
-348 4 -186 6 -348 3 -360 -2 -13 -6 -34 -9 -48 -3 -14 -18 -31 -37 -41 -27
-14 -41 -15 -107 -5 -42 7 -88 14 -102 16 -33 5 -91 -10 -69 -18 8 -3 47 -8
85 -11 39 -3 85 -8 103 -12 90 -18 191 34 178 94 -3 15 -7 178 -10 362 -4 343
-8 381 -45 395 -30 12 -211 18 -211 8z"/>
<path d="M2065 2871 c-16 -7 -14 -9 14 -14 47 -10 163 -8 179 2 26 16 -152 28
-193 12z"/>
<path d="M1150 2861 c-34 -6 -35 -7 -41 -66 -4 -33 -7 -212 -8 -397 l-1 -338
23 -5 c61 -15 188 -31 198 -24 21 12 -28 30 -102 36 -55 5 -73 10 -84 27 -17
24 -19 132 -8 502 l6 231 49 12 c28 6 143 11 261 12 117 1 239 5 272 9 36 4
-58 7 -235 7 -162 0 -311 -2 -330 -6z"/>
<path d="M1890 2860 c0 -13 60 -13 80 0 11 7 2 10 -32 10 -27 0 -48 -4 -48
-10z"/>
<path d="M2710 2861 c0 -11 25 -21 53 -21 22 1 22 1 3 15 -22 17 -56 20 -56 6z"/>
<path d="M3527 2833 c-10 -10 -8 -81 2 -87 18 -12 29 56 13 82 -5 7 -11 9 -15
5z"/>
<path d="M3591 2673 c-1 -76 3 -123 9 -123 12 0 12 134 1 200 -7 35 -9 18 -10
-77z"/>
<path d="M3520 2678 c0 -18 18 -34 28 -24 3 4 -2 14 -11 23 -16 16 -17 16 -17
1z"/>
<path d="M3542 2465 c0 -16 2 -22 5 -12 2 9 2 23 0 30 -3 6 -5 -1 -5 -18z"/>
<path d="M3602 2285 c0 -60 4 -121 8 -135 11 -34 11 140 1 200 -7 35 -9 21 -9
-65z"/>
<path d="M3550 2151 c0 -25 6 -27 13 -6 4 8 2 17 -3 20 -6 4 -10 -3 -10 -14z"/>
<path d="M203 2090 c-23 -5 -50 -13 -60 -18 -10 -6 -36 -7 -58 -3 -44 8 -75 4
-75 -9 0 -5 9 -12 20 -15 22 -7 464 12 490 21 33 11 -17 24 -90 23 -41 0 -100
2 -130 5 -30 3 -74 1 -97 -4z"/>
<path d="M3720 2075 c-8 -9 -8 -15 -2 -15 12 0 26 19 19 26 -2 2 -10 -2 -17
-11z"/>
<path d="M3775 2080 c-4 -6 -3 -16 3 -22 6 -6 12 -6 17 2 4 6 3 16 -3 22 -6 6
-12 6 -17 -2z"/>
<path d="M575 2060 c-8 -12 20 -24 35 -15 6 3 8 11 5 16 -8 12 -32 12 -40 -1z"/>
<path d="M2905 2061 c-7 -12 59 -25 82 -17 15 6 15 8 3 16 -20 13 -77 13 -85
1z"/>
<path d="M2855 2051 c-6 -11 9 -23 19 -14 9 9 7 23 -3 23 -6 0 -12 -4 -16 -9z"/>
<path d="M3033 2054 c-27 -12 -11 -22 45 -28 62 -7 126 4 103 18 -16 10 -131
18 -148 10z"/>
<path d="M3458 2053 c-32 -8 -20 -26 13 -19 17 3 35 6 40 6 5 0 9 5 9 10 0 10
-30 12 -62 3z"/>
<path d="M1548 2043 c-35 -9 -17 -24 25 -21 23 2 41 8 40 13 -3 11 -39 16 -65
8z"/>
<path d="M1829 2034 c-11 -14 -10 -16 9 -12 13 1 23 7 23 13 1 17 -17 16 -32
-1z"/>
<path d="M1892 2038 c7 -19 38 -22 38 -4 0 10 -9 16 -21 16 -12 0 -19 -5 -17
-12z"/>
<path d="M2065 2042 c11 -5 38 -12 60 -16 31 -6 37 -5 28 4 -6 7 -33 14 -60
16 -33 3 -42 2 -28 -4z"/>
<path d="M2278 2043 c6 -2 18 -2 25 0 6 3 1 5 -13 5 -14 0 -19 -2 -12 -5z"/>
<path d="M2389 2034 c54 -15 68 -14 56 5 -3 6 -30 11 -58 10 l-52 -1 54 -14z"/>
<path d="M2500 2041 c0 -12 28 -18 58 -13 37 7 25 22 -18 22 -22 0 -40 -4 -40
-9z"/>
<path d="M2755 2040 c-3 -5 3 -10 14 -10 11 0 23 5 26 10 3 6 -3 10 -14 10
-11 0 -23 -4 -26 -10z"/>
<path d="M3367 2043 c-14 -13 -6 -24 15 -21 27 4 36 28 11 28 -11 0 -23 -3
-26 -7z"/>
<path d="M3273 2023 c9 -2 23 -2 30 0 6 3 -1 5 -18 5 -16 0 -22 -2 -12 -5z"/>
<path d="M90 2000 l-55 -5 81 -9 c45 -4 179 -8 298 -9 190 -1 241 3 225 17 -7
6 -493 12 -549 6z"/>
<path d="M790 1990 c0 -5 7 -10 15 -10 8 0 15 5 15 10 0 6 -7 10 -15 10 -8 0
-15 -4 -15 -10z"/>
<path d="M868 1973 c7 -3 16 -2 19 1 4 3 -2 6 -13 5 -11 0 -14 -3 -6 -6z"/>
<path d="M1004 1972 c8 -13 168 -23 234 -15 l57 8 -55 6 c-81 10 -242 10 -236
1z"/>
<path d="M1386 1971 c-3 -4 18 -11 47 -15 77 -9 247 -7 247 3 0 16 -284 29
-294 12z"/>
<path d="M1873 1953 c15 -2 37 -2 50 0 12 2 0 4 -28 4 -27 0 -38 -2 -22 -4z"/>
<path d="M2260 1940 c0 -5 7 -10 15 -10 24 0 43 -41 51 -115 6 -58 9 -65 15
-40 15 65 10 134 -11 155 -21 21 -70 28 -70 10z"/>
<path d="M2386 1919 c-9 -47 -7 -197 3 -179 12 22 23 197 13 204 -5 3 -12 -8
-16 -25z"/>
<path d="M2380 1645 c0 -8 5 -15 10 -15 6 0 10 7 10 15 0 8 -4 15 -10 15 -5 0
-10 -7 -10 -15z"/>
<path d="M2392 1530 c0 -14 2 -19 5 -12 2 6 2 18 0 25 -3 6 -5 1 -5 -13z"/>
<path d="M2765 1290 c-3 -5 -1 -10 4 -10 6 0 11 -9 11 -20 0 -30 17 -24 29 10
9 28 8 30 -14 30 -13 0 -27 -4 -30 -10z"/>
<path d="M2319 1213 l-24 -48 -500 2 c-275 1 -621 7 -770 13 -399 15 -945 24
-990 16 -98 -19 14 -28 433 -37 240 -5 624 -13 852 -19 806 -19 945 -21 975
-13 26 8 31 16 41 69 7 32 11 60 9 62 -1 2 -13 -19 -26 -45z"/>
<path d="M2402 1153 c-23 -9 -1 -23 36 -23 21 0 32 4 27 9 -14 12 -48 20 -63
14z"/>
<path d="M2510 1140 c0 -5 7 -10 16 -10 8 0 12 5 9 10 -3 6 -10 10 -16 10 -5
0 -9 -4 -9 -10z"/>
<path d="M2740 1130 c38 -12 159 -12 140 0 -8 5 -49 9 -90 9 -53 -1 -68 -3
-50 -9z"/>
<path d="M3060 1130 c14 -4 50 -8 80 -8 42 0 49 2 30 8 -14 4 -50 8 -80 8 -42
0 -49 -2 -30 -8z"/>
<path d="M3358 1123 c18 -2 45 -2 60 0 15 2 0 4 -33 4 -33 0 -45 -2 -27 -4z"/>
<path d="M57 1050 c-36 -7 -66 -25 -56 -34 2 -3 31 2 64 10 33 7 74 14 90 14
17 0 37 5 45 10 18 12 -84 12 -143 0z"/>
<path d="M730 1052 c0 -12 109 -32 171 -31 49 0 88 12 73 22 -20 12 -244 21
-244 9z"/>
<path d="M1033 1015 c32 -28 47 -32 47 -11 0 18 -6 21 -45 30 l-30 6 28 -25z"/>
<path d="M1245 1026 l-140 -11 -3 -50 c-3 -49 11 -56 20 -10 3 17 10 20 56 17
37 -2 60 3 79 15 19 13 54 19 122 23 63 3 96 9 99 18 4 14 -29 14 -233 -2z"/>
<path d="M1525 1030 c-8 -12 42 -12 70 0 16 7 11 9 -22 9 -23 1 -45 -3 -48 -9z"/>
<path d="M3490 961 c0 -5 9 -19 20 -32 21 -26 27 -11 10 22 -11 19 -30 26 -30
10z"/>
<path d="M3590 951 c-7 -14 -7 -22 1 -27 10 -6 28 11 29 28 0 17 -20 17 -30
-1z"/>
<path d="M3592 850 c0 -14 2 -19 5 -12 2 6 2 18 0 25 -3 6 -5 1 -5 -13z"/>
<path d="M3590 669 c0 -41 5 -81 10 -89 7 -10 8 12 4 70 -4 47 -8 87 -10 89
-2 2 -4 -29 -4 -70z"/>
<path d="M1052 637 c-20 -23 -23 -61 -8 -82 15 -19 15 -18 16 22 0 23 5 45 10
48 12 8 13 25 1 25 -5 0 -13 -6 -19 -13z"/>
<path d="M3602 450 c0 -14 2 -19 5 -12 2 6 2 18 0 25 -3 6 -5 1 -5 -13z"/>
<path d="M1090 390 c0 -53 15 -69 21 -22 5 37 0 72 -12 72 -5 0 -9 -22 -9 -50z"/>
<path d="M1143 380 c0 -25 2 -35 4 -22 2 12 2 32 0 45 -2 12 -4 2 -4 -23z"/>
<path d="M1157 269 c15 -15 93 -24 93 -11 0 12 -34 22 -74 22 -22 0 -27 -3
-19 -11z"/>
<path d="M1277 274 c-12 -12 4 -24 34 -24 34 0 39 15 7 24 -29 7 -33 7 -41 0z"/>
<path d="M125 260 l-30 -6 32 -7 c67 -14 159 -18 183 -9 25 10 24 10 -10 15
-63 10 -144 14 -175 7z"/>
<path d="M18 253 c6 -2 18 -2 25 0 6 3 1 5 -13 5 -14 0 -19 -2 -12 -5z"/>
<path d="M508 233 c12 -2 30 -2 40 0 9 3 -1 5 -23 4 -22 0 -30 -2 -17 -4z"/>
<path d="M27 182 c-15 -2 -25 -8 -22 -13 8 -12 105 -12 105 0 0 10 -44 17 -83
13z"/>
<path d="M150 172 c0 -5 61 -12 137 -15 194 -10 523 -9 523 1 0 5 -61 12 -137
15 -194 10 -523 9 -523 -1z"/>
<path d="M869 149 c-21 -18 -21 -20 -4 -14 46 16 105 17 150 2 33 -12 45 -13
42 -4 -13 40 -148 52 -188 16z"/>
<path d="M1170 160 c0 -13 170 -13 190 0 10 7 -18 10 -87 10 -62 0 -103 -4
-103 -10z"/>
<path d="M85 76 c-16 -12 -18 -19 -10 -43 7 -18 18 -28 30 -28 17 0 20 7 20
39 0 44 -11 53 -40 32z"/>
</g>
</svg>
